<svg version="1.1" xmlns="http://www.w3.org/2000/svg" xmlns:xlink="http://www.w3.org/1999/xlink" width="239.2165" height="72.89612" viewBox="0,0,239.2165,72.89612"><g transform="translate(-200.39175,-143.55194)"><g data-paper-data="{&quot;isPaintingLayer&quot;:true}" fill-rule="nonzero" stroke="none" stroke-width="0.5" stroke-linecap="butt" stroke-linejoin="miter" stroke-miterlimit="10" stroke-dasharray="" stroke-dashoffset="0" style="mix-blend-mode: normal"><path d="M210.16371,182.15008c0.07117,0 0.13771,0.01978 0.19445,0.05413c0.08788,-0.6178 0.1686,-1.23617 0.24661,-1.85503l-0.08123,0.11361c0.00988,0.66308 -0.37772,1.15911 -0.56968,1.75126c0.05994,-0.04039 0.13214,-0.06397 0.20985,-0.06397zM210.16371,182.90199c-0.13248,0 -0.24896,-0.06852 -0.31592,-0.17206c-0.11914,0.98162 -0.06041,1.85448 -0.31349,2.84969c0.00126,0.27874 0.02263,0.5618 0.05628,0.84769c0.27541,-1.17632 0.48724,-2.35556 0.66677,-3.53707c-0.02994,0.00767 -0.06132,0.01175 -0.09365,0.01175zM210.70564,179.53923c0.20176,-1.63344 0.39821,-3.26997 0.67119,-4.90784c0.76873,-4.611 -0.43325,-9.77383 -2.03283,-14.1057c-0.43793,-1.30494 -0.63687,-2.89034 -1.48542,-4.00648c-0.96543,-1.26988 -3.51518,-2.7052 -5.01034,-3.21582c-0.50508,-0.17249 -1.73261,-0.53114 -2.09779,-0.89228c-1.07214,-1.06028 0.54046,-1.07889 1.17261,-1.16919c3.0956,-0.44223 6.49838,-1.65133 9.63761,-1.16857c1.50762,0.23185 2.90516,1.82062 4.01631,2.74985c1.3058,0.98572 2.92081,2.63073 3.61061,4.13448c1.13043,2.46433 1.05417,5.73954 1.04115,8.39894c-0.34858,1.58987 -0.02593,3.37885 -0.51516,4.91358c-0.95656,3.0007 -1.76303,6.26185 -1.82463,9.46071c-0.48895,2.14468 -1.01222,4.4167 -1.19992,6.60569c-0.06378,0.74385 -0.04616,1.53038 -0.13615,2.26614c-0.01127,0.09215 -0.05037,0.23635 -0.09908,0.37933c0.2452,-0.11229 0.5868,-0.12423 0.69767,-0.15238c1.16923,-0.29687 2.31515,-0.59268 3.50153,-0.82953c1.72359,-0.00409 3.47608,0.09399 5.19653,-0.0013c1.31102,-0.07261 2.52096,-0.52369 3.82028,-0.6664c1.76366,-0.19372 3.52887,-0.16962 5.30051,-0.16963c0.84161,-0.00001 1.13716,0.05813 1.90088,0.42428c0.9552,0.45795 2.59488,0.65336 3.38036,1.31868c0.52944,0.44846 0.49492,1.62047 0.5889,2.23435c0.34225,2.23562 -0.22756,4.37458 -0.2243,6.59122c0,1.36372 -0.16172,2.68784 -0.16991,4.05615l-0.02256,0.04169l0.01415,0.00354l-0.16519,0.66074c-0.03799,0.16742 -0.18772,0.2924 -0.36664,0.2924c-0.17892,0 -0.32865,-0.12498 -0.36664,-0.2924l-0.16519,-0.66074l0.04873,-0.01218c-0.58254,-1.2698 -1.07506,-2.60191 -2.20272,-3.51752c-2.2592,-1.83437 -5.84108,-2.17032 -8.64141,-2.19724c-4.85108,-0.01017 -9.62079,0.96755 -14.4753,0.99476c-1.17159,0.00445 -2.30363,-0.26598 -3.4669,-0.33105c-2.06867,-0.11573 -4.22264,0.25607 -6.26137,-0.14775l-0.41095,-0.01866l0.00552,-0.12152l-0.33898,-0.11809c0.06405,-0.09786 0.13078,-0.1933 0.19995,-0.28652l-0.11528,-0.11528l0.50127,-0.50127l0.06855,0.06855c1.49097,-1.62371 3.68625,-2.60985 4.89022,-4.51184c0.31846,-0.50309 0.0484,-1.23185 -0.02079,-1.74971c-0.17076,-1.27803 -0.37182,-2.489 -0.36673,-3.77969c0.2615,-1.06128 0.18127,-1.96274 0.33622,-3.02193c0.1181,-0.80724 0.66864,-1.39846 0.67964,-2.22091l0.38119,-0.60087c0,0 0.20819,-0.31229 0.52056,-0.1048zM209.73998,187.40264c0.20107,1.13591 0.45511,2.28937 0.29355,3.3711c-0.25729,1.72279 -2.91717,3.28334 -4.14897,4.29122c-0.37734,0.30875 -0.70021,0.65437 -1.10993,0.8661c1.93302,0.31225 3.96752,-0.02395 5.91874,0.08869c1.14241,0.06595 2.25594,0.33738 3.40598,0.32892c4.85764,-0.02621 9.62892,-1.00498 14.48385,-0.99476c3.21813,0.03123 7.3747,0.47015 9.62499,2.994c0.42861,0.48072 1.13224,1.26154 1.52789,2.0606c0.04851,-0.8916 0.12813,-1.77445 0.12813,-2.67713c0.00296,-2.17647 0.57207,-4.28446 0.23304,-6.47689c-0.04931,-0.31888 -0.04048,-1.56715 -0.34824,-1.78935c-0.37318,-0.26943 -0.89402,-0.23145 -1.31939,-0.40726c-1.19307,-0.49309 -2.1687,-1.14314 -3.45932,-1.14313c-4.81284,0.00004 -9.42214,0.84622 -14.24235,0.83358c-1.35955,0.27942 -2.74044,0.54607 -4.06268,0.97228c-0.28265,0.09111 -0.56985,0.46368 -0.83077,0.32184c-0.42668,-0.23197 -0.04201,-1.88539 -0.02498,-2.25738c0.12403,-2.7082 0.71694,-5.51082 1.333,-8.14501c0.03561,-3.21329 0.85987,-6.58313 1.85138,-9.58773c0.48594,-1.47254 0.14108,-3.24228 0.48739,-4.77773c-0.02762,-4.63511 -0.38951,-8.89685 -4.37118,-11.86195c-0.96809,-0.80886 -2.34561,-2.42714 -3.6699,-2.59707c-3.09447,-0.3971 -6.3635,0.73538 -9.41083,1.17072c-0.06441,0.0092 -0.22423,-0.01161 -0.38832,-0.04094c0.28473,0.13672 0.54638,0.35996 0.83091,0.49894c1.02345,0.49992 2.07033,0.84872 3.06868,1.47165c0.95117,0.59349 2.22806,1.26482 2.91798,2.15019c0.91524,1.17454 1.13077,2.82725 1.59454,4.20971c1.64349,4.44923 2.85418,9.74467 2.06533,14.47918c-0.69033,4.14195 -0.9028,8.2756 -1.92425,12.37369c0,0 -0.09091,0.36363 -0.45427,0.27396z" fill="#000000"/><path d="M210.1772,187.14706c1.02145,-4.09809 1.22602,-8.25242 1.91635,-12.39437c0.78885,-4.73451 -0.4114,-10.04806 -2.05489,-14.4973c-0.46377,-1.38246 -0.65128,-2.99362 -1.56652,-4.16816c-0.68992,-0.88538 -1.96579,-1.55738 -2.91696,-2.15087c-0.99835,-0.62293 -2.04411,-0.97257 -3.06756,-1.47249c-0.28453,-0.13898 -0.54596,-0.3624 -0.8307,-0.49911c0.1641,0.02933 0.29239,0.01117 0.3568,0.00196c3.04733,-0.43533 6.32306,-1.57166 9.41753,-1.17456c1.32429,0.16994 2.70441,1.78737 3.67251,2.59624c3.98168,2.96509 4.3534,7.27591 4.38102,11.91101c-0.34631,1.53545 0.00334,3.30403 -0.48259,4.77657c-0.99151,3.0046 -1.80699,6.33242 -1.8426,9.54571c-0.61606,2.63418 -1.21635,5.43205 -1.34038,8.14025c-0.01704,0.372 -0.40307,2.02489 0.02361,2.25686c0.26091,0.14185 0.54702,-0.23108 0.82967,-0.32219c1.32224,-0.42621 2.69627,-0.69393 4.05582,-0.97334c4.82022,0.01264 9.41032,-0.82503 14.22316,-0.82507c1.29062,-0.00001 2.26522,0.65129 3.45829,1.14438c0.42538,0.17581 0.98624,0.16801 1.35942,0.43744c0.30776,0.22219 0.29816,1.47145 0.34747,1.79033c0.33903,2.19243 -0.23319,4.3036 -0.23616,6.48007c0,0.90269 -0.08078,1.78646 -0.12928,2.67806c-0.39566,-0.79906 -1.09927,-1.57989 -1.52788,-2.06061c-2.2503,-2.52385 -6.41297,-2.95936 -9.63109,-2.99059c-4.85493,-0.01022 -9.64309,0.969 -14.50072,0.9952c-1.15004,0.00847 -2.26696,-0.26437 -3.40937,-0.33031c-1.95122,-0.11264 -3.99009,0.22079 -5.9231,-0.09147c0.40972,-0.21172 0.76347,-0.59683 1.14081,-0.90558c1.2318,-1.00787 3.86178,-2.52821 4.11907,-4.251c0.16156,-1.08173 -0.0951,-2.23735 -0.29617,-3.37326c0.36336,0.08968 0.45444,-0.2738 0.45444,-0.2738z" data-paper-data="{&quot;noHover&quot;:false,&quot;origItem&quot;:[&quot;Path&quot;,{&quot;applyMatrix&quot;:true,&quot;segments&quot;:[[[108.68776,201.19508],[0.72488,0.1789],[0.40112,2.26604]],[[109.27337,207.92013],[0.32229,-2.15796],[-0.51328,3.43681]],[[100.99652,216.48075],[2.45734,-2.01062],[-0.75277,0.61592]],[[98.78231,218.20854],[0.81735,-0.42237],[3.8562,0.62292]],[[110.58969,218.38547],[-3.89252,-0.2247],[2.27902,0.13156]],[[117.38433,219.04163],[-2.29423,0.01689],[9.69057,-0.05228]],[[146.27838,217.05717],[-9.68517,-0.02038],[6.41989,0.0623]],[[165.47942,223.02993],[-4.48915,-5.03487],[0.85505,0.95899]],[[168.52745,227.14065],[-0.7893,-1.59405],[0.09677,-1.77866]],[[168.78306,221.8],[0,1.80078],[0.00591,-4.34188]],[[169.24795,208.87916],[0.67634,4.37371],[-0.09837,-0.63614]],[[168.55324,205.30956],[0.61395,0.44326],[-0.74446,-0.53748]],[[165.92116,204.49712],[0.84859,0.35072],[-2.38007,-0.98367]],[[159.02011,202.21667],[2.57467,-0.00001],[-9.6012,0.00008]],[[130.60783,203.87959],[9.61592,0.02521],[-2.71219,0.55741]],[[122.50314,205.81922],[2.63775,-0.85025],[-0.56387,0.18176]],[[120.84583,206.46125],[0.52049,0.28297],[-0.85119,-0.46276]],[[120.796,201.95796],[-0.03399,0.7421],[0.24742,-5.40263]],[[123.45522,185.70936],[-1.22899,5.25497],[0.07103,-6.41024]],[[127.14857,166.58266],[-1.97798,5.99393],[0.9694,-2.93759]],[[128.12087,157.05149],[-0.69085,3.0631],[-0.0551,-9.24664]],[[119.40072,133.38792],[7.94312,5.91511],[-1.93126,-1.61361]],[[112.07959,128.20698],[2.64185,0.33902],[-6.1732,-0.79218]],[[93.30579,130.54246],[6.07917,-0.86845],[-0.1285,0.01836]],[[92.53112,130.46078],[0.32736,0.05852],[0.56801,0.27274]],[[94.18872,131.45613],[-0.56761,-0.27725],[2.0417,0.99729]],[[100.31047,134.39194],[-1.99163,-1.24269],[1.8975,1.18396]],[[106.13159,138.68138],[-1.37633,-1.76625],[1.82583,2.3431]],[[109.31256,147.07939],[-0.92519,-2.75789],[3.27863,8.87584]],[[113.43271,175.96412],[1.57369,-9.44494],[-1.37714,8.26283]],[[109.594,200.64857],[2.03771,-8.17534],[0,0]]],&quot;closed&quot;:true}]}" fill="#00b7ff"/><path d="M233.59829,168.49034c0,0.37596 -0.37596,0.37596 -0.37596,0.37596h-0.50127c-1.20624,0 -2.34997,-0.11949 -3.45619,0.43031c-0.27136,0.17171 0.0665,1.61382 0.17024,2.01873c0.11595,0.4526 0.24679,1.64788 0.4162,1.96793c0.04432,0.08373 1.76534,0.96709 1.96451,1.0152c0.61791,0.14927 1.38061,-0.19841 1.90258,-0.4612c1.33939,-0.67428 3.06759,-1.41005 4.11123,-2.46293c1.3204,-0.71442 -0.27969,-2.78249 -1.19513,-3.23452c-1.01749,-0.50241 -3.22586,-0.55294 -4.54938,-0.02777c0.20805,0.00059 0.4197,0.00234 0.63593,0.00234h0.50127c0,0 0.37596,0 0.37596,0.37596zM230.71176,168.16015c0.03326,-0.06346 0.07254,-0.10274 0.07254,-0.10274c1.24168,-1.21067 4.59486,-1.36807 6.18159,-0.59254c1.51901,0.74244 2.98663,3.25151 1.34044,4.49095c-0.59181,0.58694 -1.17853,0.81454 -1.89955,1.21051c-0.81467,0.44741 -1.74903,1.16273 -2.72934,1.58479c0.16135,0.12233 0.29172,0.28239 0.41468,0.45153c1.19844,-0.02809 2.46656,0.19054 3.61831,0.09738c1.06542,-0.08617 2.1017,-0.37503 3.15216,-0.49918c0.83098,-0.09821 1.61126,0.06361 2.3218,-0.42381c0.01264,-2.66998 0.2774,-4.88005 -1.25189,-7.18192c-0.30023,-0.4519 -1.01802,-1.53166 -1.53018,-1.71234c-1.3781,-0.48615 -2.72955,-0.66282 -4.19544,-0.92846c-4.70244,-0.79633 -9.18626,1.29123 -11.33913,5.61212c-0.52528,1.04224 -1.42787,1.61853 -2.03429,2.5539c-1.77941,2.74464 -2.13178,7.81249 0.54432,10.02609c0.76726,0.63671 1.54865,0.99358 2.34357,1.45752c0.91801,0.53578 1.46033,1.70486 2.47323,2.15553c0.78175,0.34782 1.85705,-0.13634 2.63299,-0.32407c1.62742,-0.39372 3.11077,-0.55681 4.63548,-1.29101c0.60357,-0.18518 1.25551,-0.57773 1.82761,-0.74021c1.01178,-0.28735 2.36461,-0.18604 3.17721,-1.0677c0.62726,-0.68057 0.41994,-1.62027 0.76078,-2.39017c0.0175,-0.03953 0.46744,-1.54885 0.37145,-1.51607c-0.88229,0.30126 -1.6522,1.64385 -2.28327,2.27596c-1.22776,0.92066 -2.88459,0.9797 -4.41117,0.75352c-0.8243,-0.12213 -1.51198,-0.79922 -2.295,-1.01233c-1.24849,-0.3398 -2.84325,0.00208 -4.01872,-0.50401c-0.80719,-0.34752 -0.99785,-1.07295 -1.54113,-1.66858c-0.26064,-0.75824 -0.88396,-2.86371 -0.31588,-3.58646c0.34455,-0.43836 1.67388,-0.4063 2.16878,-0.4682c0.63851,-0.07985 1.26487,-0.12894 1.89538,-0.15703c-0.65295,-0.32178 -1.4449,-0.76256 -1.55779,-0.94022c-0.14849,-0.23368 -0.01306,-0.55623 -0.06611,-0.82797c-0.25935,-1.32846 -1.33458,-3.08107 -0.35,-4.20832c0.63679,-0.31981 1.25473,-0.4632 1.88654,-0.52648zM234.22489,176.7196c-0.37596,0 -0.37596,-0.37596 -0.37596,-0.37596l0.09378,-0.08574c-0.07912,-0.0899 -0.14703,-0.19114 -0.21267,-0.29442c-0.22334,0.02131 -0.44204,0.05547 -0.65436,0.10676c-0.50433,0.12184 -1.00546,0.31005 -1.52427,0.31517c0,0 -0.37596,0 -0.37596,-0.37596c0,-0.37596 0.37596,-0.37596 0.37596,-0.37596c0.46185,0.00561 0.90359,-0.19223 1.35377,-0.29559c0.06738,-0.01547 0.13524,-0.02939 0.20353,-0.04188c-0.21817,-0.04892 -0.48622,0.08683 -0.72184,0.08683c-1.15982,0 -2.25537,0.04163 -3.39681,0.18423c-0.04927,0.00616 -1.63249,0.14066 -1.64512,0.16091c-0.3063,0.49074 0.1702,2.19301 0.35248,2.76301c0.38754,0.40676 0.57656,1.13015 1.13233,1.33906c1.20594,0.45331 2.73557,0.14648 4.00167,0.49854c1.99908,0.55589 4.02396,1.8865 5.99279,0.40956c0.61767,-0.61646 1.95765,-2.73503 3.06366,-2.4026c0.46138,0.13867 0.4024,1.01507 0.39917,1.34989c-0.00903,0.93815 -0.61461,3.06964 -1.27203,3.76681c-0.92934,0.98553 -2.36194,0.94212 -3.50645,1.27158c-0.55476,0.15969 -1.17774,0.54051 -1.77143,0.72075c-1.75179,0.84863 -3.5878,1.05127 -5.46635,1.49508c-0.82638,0.19523 -1.5479,0.45474 -2.38038,0.10745c-1.05703,-0.44098 -1.60014,-1.66522 -2.53951,-2.18885c-0.84772,-0.47254 -1.65183,-0.87079 -2.45268,-1.53271c-2.97256,-2.46433 -2.6975,-7.98702 -0.67473,-11.04486c0.59605,-0.90105 1.4726,-1.44323 1.97174,-2.45052c2.31138,-4.60774 7.10926,-6.86875 12.14184,-6.01641c1.51929,0.27854 2.997,0.40637 4.40932,1.00043c0.66909,0.28144 1.42198,1.38154 1.81165,1.96368c1.63627,2.44444 1.57723,5.09958 1.2879,7.95657c-1.03804,0.81261 -1.63965,0.66611 -2.89146,0.81267c-1.06478,0.12466 -2.11686,0.41753 -3.19731,0.50336c-1.01155,0.08036 -2.14453,-0.102 -3.22216,-0.11587l0.06584,0.40901c0,0 0,0.37596 -0.37596,0.37596z" fill="#000000"/><path d="M228.83675,168.70888c-0.98459,1.12725 0.09862,2.87334 0.35797,4.20181c0.05305,0.27174 -0.07997,0.59072 0.06851,0.8244c0.11289,0.17766 0.90529,0.61759 1.55824,0.93937c-0.63051,0.0281 -1.25456,0.07028 -1.89307,0.15014c-0.4949,0.06189 -1.82385,0.02606 -2.16839,0.46442c-0.56807,0.72275 0.05118,2.81387 0.31182,3.57211c0.54329,0.59563 0.72774,1.31452 1.53492,1.66204c1.17547,0.50608 2.75416,0.15942 4.00266,0.49922c0.78302,0.21311 1.46288,0.89188 2.28718,1.01401c1.52657,0.22618 3.17331,0.17437 4.40108,-0.74628c0.63107,-0.63211 1.39681,-1.96765 2.27909,-2.2689c0.09599,-0.03277 -0.30885,1.49808 -0.32634,1.5376c-0.34085,0.7699 -0.13683,1.71411 -0.76409,2.39467c-0.8126,0.88166 -2.1713,0.78506 -3.18308,1.07241c-0.5721,0.16248 -1.2286,0.5571 -1.83217,0.74228c-1.52471,0.73421 -3.01957,0.89836 -4.64699,1.29208c-0.77594,0.18772 -1.85661,0.67051 -2.63835,0.3227c-1.01291,-0.45067 -1.56144,-1.62317 -2.47945,-2.15895c-0.79491,-0.46393 -1.58064,-0.82497 -2.3479,-1.46168c-2.6761,-2.2136 -2.32843,-7.30421 -0.54902,-10.04885c0.60643,-0.93537 1.51264,-1.51923 2.03792,-2.56147c2.15287,-4.32089 6.66558,-6.41759 11.36803,-5.62125c1.4659,0.26564 2.82471,0.44645 4.20282,0.9326c0.51216,0.18067 1.23318,1.26358 1.53341,1.71548c1.52929,2.30187 1.27045,4.52582 1.25781,7.19581c-0.71054,0.48742 -1.49077,0.32617 -2.32175,0.42438c-1.05047,0.12415 -2.08668,0.41424 -3.1521,0.50041c-1.15175,0.09316 -2.46978,-0.12159 -3.66822,-0.0935c-0.12297,-0.16915 -0.25087,-0.32118 -0.41221,-0.44351c0.98031,-0.42206 1.91514,-1.1365 2.72981,-1.58391c0.72102,-0.39597 1.30799,-0.62314 1.89979,-1.21008c1.64619,-1.23944 0.18762,-3.73945 -1.3314,-4.48189c-1.58673,-0.77554 -4.92218,-0.61525 -6.16386,0.59542c0,0 -0.03897,0.03921 -0.07224,0.10267c-0.63181,0.06328 -1.24364,0.20444 -1.88043,0.52426z" data-paper-data="{&quot;noHover&quot;:false,&quot;origItem&quot;:[&quot;Path&quot;,{&quot;applyMatrix&quot;:true,&quot;segments&quot;:[[[150.52468,162.80796],[-1.26041,0.12623],[0.06636,-0.1266]],[[150.66939,162.603],[0,0],[2.47704,-2.41518]],[[163.00114,161.42094],[-3.1654,-1.54713],[3.0303,1.4811]],[[165.67521,170.38],[3.28401,-2.47258],[-1.18061,1.17089]],[[161.88578,172.79487],[1.43837,-0.78993],[-1.6252,0.89254]],[[156.44097,175.9564],[1.95563,-0.84198],[0.32187,0.24403]],[[157.26823,176.85718],[-0.24531,-0.33744],[2.39078,-0.05604]],[[164.48645,177.05145],[-2.29765,0.18584],[2.12543,-0.17191]],[[170.77475,176.05562],[-2.09559,0.24767],[1.65774,-0.19592]],[[175.40654,175.21016],[-1.41747,0.97236],[0.02522,-5.32639]],[[172.90912,160.88284],[3.05081,4.59203],[-0.59894,-0.90151]],[[169.85654,157.46687],[1.02172,0.36043],[-2.7492,-0.96983]],[[161.48698,155.61469],[2.92434,0.52992],[-9.38097,-1.58862]],[[138.86639,166.81038],[4.2948,-8.61981],[-1.04789,2.07918]],[[134.80815,171.9052],[1.20977,-1.86599],[-3.54978,5.47532]],[[135.89403,191.9064],[-5.33859,-4.41594],[1.53061,1.27018]],[[140.56925,194.81401],[-1.58578,-0.92551],[1.83136,1.06884]],[[145.50314,199.11411],[-2.02066,-0.89905],[1.55952,0.69388]],[[150.75574,198.46763],[-1.54794,0.37449],[3.24656,-0.78544]],[[160.00312,195.89217],[-3.04166,1.46468],[1.20408,-0.36942]],[[163.64905,194.41551],[-1.1413,0.32413],[2.01842,-0.57323]],[[169.98732,192.28554],[-1.62107,1.75884],[1.25133,-1.35768]],[[171.50502,187.51735],[-0.67996,1.53588],[0.03491,-0.07885]],[[172.24604,184.49291],[0.19149,-0.06538],[-1.76009,0.60098]],[[167.69112,189.03326],[1.25893,-1.261],[-2.44928,1.83663]],[[158.89122,190.53647],[3.04538,0.4512],[-1.6444,-0.24363]],[[154.3129,188.51696],[1.56206,0.42514],[-2.49064,-0.67787]],[[146.29588,187.51151],[2.34497,1.00959],[-1.61027,-0.69328]],[[143.22145,184.18283],[1.08381,1.18823],[-0.51995,-1.51262]],[[142.59129,177.02813],[-1.13326,1.44183],[0.68734,-0.87449]],[[146.91782,176.09412],[-0.98728,0.12347],[1.27377,-0.1593]],[[150.69894,175.78086],[-1.25782,0.05605],[-1.30258,-0.64193]],[[147.59129,173.9052],[0.2252,0.35441],[-0.29622,-0.46618]],[[147.45941,172.25347],[0.10583,0.54209],[-0.51738,-2.65017]],[[146.76119,163.85823],[-1.96417,2.24876],[1.27034,-0.638]]],&quot;closed&quot;:true}]}" fill="#ffffff"/><path d="M251.52071,163.11224c1.24253,-0.35492 2.51745,-0.61654 3.82405,-0.33888c2.19153,0.46573 4.68732,1.51085 6.7585,2.3609c4.99466,2.0097 6.98147,7.14742 7.08277,12.16652c0.57055,2.53749 0.64863,5.26015 -0.01338,7.67349c-0.13898,0.50665 0.01613,1.45654 0.01613,1.9797c0,1.64307 0,3.28614 0,4.9292c0,1.83692 -0.33343,3.63631 -0.67484,5.41639c-0.06802,0.35465 0.12907,0.72524 -0.02215,1.07696c-0.32159,0.748 -1.3562,0.91624 -2.03609,1.01995c-1.92562,0.29371 -3.9538,0.25164 -5.86837,-0.09018c-2.60066,-0.43914 -5.27561,-0.35541 -7.90533,-0.50602c-1.10025,-0.06301 -2.37813,-0.08303 -3.39767,-0.55531c-1.11001,-0.51419 -1.66225,-1.94518 -2.16422,-2.96723c-3.35595,-3.30917 -3.15788,-9.431 -0.38566,-12.85961c1.70869,-4.12396 6.51077,-3.49045 10.00861,-2.69446c1.18042,0.26862 2.38634,0.25207 3.56395,0.58187c1.70775,0.01926 2.89844,0.64662 4.3092,1.22565c0.12055,0.04948 -0.1673,-0.21349 -0.18955,-0.34188c-0.04279,-0.24696 -0.00015,-0.50127 0,-0.75191c0.00037,-0.60212 0.1351,-1.18006 0.16782,-1.77782c0.09984,-1.82422 0.47672,-4.45602 -1.19452,-5.43013c-1.97739,-1.77417 -4.10685,-3.03281 -6.8917,-2.52998c-0.41603,0.07512 -0.69277,0.50486 -1.09104,0.64665c-1.23754,0.44057 -2.69328,0.67096 -4.03692,0.84492c-0.54611,0.2768 -2.12454,1.13674 -2.71722,0.57535c-0.50243,-0.4759 0.01332,-2.43712 0.04794,-3.03625c0.11903,-2.06046 -0.75089,-6.45654 2.16278,-6.45654c0.14754,-0.05088 0.29507,-0.10177 0.44261,-0.15265zM249.76246,164.32272c-0.00425,0.00682 -0.0084,0.01379 -0.01244,0.02089c-0.27667,0.48601 -0.09883,1.2823 -0.11104,1.81597c-0.02702,1.18151 -0.10865,2.42359 -0.17729,3.61386c-0.02427,0.42088 -0.4487,2.16783 -0.26692,2.46124c0.06684,0.1079 1.86198,-0.71232 1.96134,-0.76138c1.33581,-0.20436 2.75944,-0.38918 3.98347,-0.82599c0.44777,-0.1598 0.78266,-0.5938 1.24824,-0.69008c2.92079,-0.60402 5.38742,0.79097 7.456,2.66526c2.2802,1.33817 1.52327,5.08073 1.33403,7.42052c-0.03387,0.4188 0.1979,1.90914 -0.18882,2.14113c-0.27934,0.16758 -0.60703,-0.23929 -0.92013,-0.32915c-1.32632,-0.38065 -2.45594,-0.78003 -3.86837,-0.80514c-1.19853,-0.32695 -2.422,-0.32254 -3.62339,-0.59283c-3.11815,-0.70155 -7.72794,-1.49838 -9.19286,2.33937c-2.60875,3.28942 -2.82301,8.83472 0.34582,12.04167c0.40785,0.80351 0.93174,2.32521 1.84598,2.71388c3.30741,1.40609 7.62732,0.42032 11.14054,1.01361c1.83976,0.33499 3.77687,0.35664 5.62813,0.08721c0.32052,-0.04665 1.30755,-0.13256 1.45237,-0.56401c0.09848,-0.29338 -0.07668,-0.62352 -0.02215,-0.92814c0.31164,-1.74071 0.66189,-3.48301 0.66189,-5.27746c0,-2.13763 -0.52212,-5.06194 0.01613,-7.12679c0.60946,-2.33802 0.52738,-4.90503 -0.01338,-7.36475c-0.12554,-4.73268 -1.84436,-9.66307 -6.61873,-11.56048c-2.03621,-0.83567 -4.45999,-1.84334 -6.60882,-2.31766c-1.07124,-0.23646 -2.12504,-0.06177 -3.15378,0.21788c-0.11106,0.12221 -0.28879,0.12221 -0.28879,0.12221l-0.10732,-0.00961c-0.55041,0.16241 -1.09327,0.34382 -1.6274,0.49643c0,0 -0.14119,0.04034 -0.27231,-0.01764z" fill="#000000"/><path d="M250.02501,164.31728c0.53413,-0.15261 1.07919,-0.33483 1.6296,-0.49724l0.10745,0.00957c0,0 0.17815,-0.00013 0.28921,-0.12233c1.02875,-0.27965 2.08685,-0.4552 3.15808,-0.21874c2.14883,0.47433 4.58268,1.48295 6.61889,2.31862c4.77437,1.89742 6.50965,6.84391 6.6352,11.5766c0.54075,2.45972 0.6229,5.04225 0.01344,7.38027c-0.53825,2.06486 -0.02185,4.99878 -0.02185,7.13641c0,1.79446 -0.35455,3.54036 -0.66619,5.28106c-0.05454,0.30462 0.1201,0.63509 0.02162,0.92848c-0.14482,0.43145 -1.13353,0.51833 -1.45405,0.56498c-1.85126,0.26943 -3.79498,0.25015 -5.63474,-0.08485c-3.51322,-0.59329 -7.84865,0.3907 -11.15606,-1.0154c-0.91424,-0.38867 -1.44183,-1.91246 -1.84968,-2.71598c-3.16884,-3.20695 -2.9651,-8.76867 -0.35635,-12.0581c1.46492,-3.83775 6.08329,-3.06435 9.20144,-2.3628c1.20138,0.2703 2.46604,0.2845 3.66457,0.61144c1.41243,0.0251 2.54191,0.4277 3.86824,0.80836c0.31311,0.08986 0.59104,0.49072 0.87038,0.32315c0.38672,-0.23199 0.15494,-1.71564 0.18882,-2.13444c0.18924,-2.33978 0.95548,-6.066 -1.32472,-7.40417c-2.06857,-1.87429 -4.518,-3.26394 -7.43879,-2.65992c-0.46558,0.09628 -0.79745,0.5299 -1.24522,0.68969c-1.22403,0.43681 -2.63916,0.61832 -3.97496,0.82267c-0.09936,0.04906 -1.891,0.86666 -1.95784,0.75876c-0.18178,-0.29342 0.21191,-2.07982 0.23618,-2.5007c0.06863,-1.19027 0.15307,-2.434 0.1801,-3.61551c0.01221,-0.53368 -0.1645,-1.33049 0.11217,-1.8165c0.00405,-0.00711 0.00822,-0.01409 0.01247,-0.0209c0.13111,0.05798 0.27261,0.01751 0.27261,0.01751z" data-paper-data="{&quot;noHover&quot;:false,&quot;origItem&quot;:[&quot;Path&quot;,{&quot;applyMatrix&quot;:true,&quot;segments&quot;:[[[188.5292,155.15261],[0.26156,0.11567],[-0.00847,0.01361]],[[188.50438,155.1943],[0.00807,-0.01418],[-0.55194,0.96955]],[[188.28286,158.81701],[0.02435,-1.06464],[-0.05391,2.35701]],[[187.9292,166.02636],[0.13691,-2.37449],[-0.04841,0.83962]],[[187.39672,170.93633],[-0.36263,-0.58534],[0.13335,0.21525]],[[191.30943,169.41745],[-0.19822,0.09787],[2.66482,-0.40768]],[[199.25612,167.76967],[-2.44184,0.8714],[0.89327,-0.31878]],[[201.74625,166.39302],[-0.92879,0.19208],[5.82673,-1.20497]],[[216.62033,171.70997],[-4.12663,-3.73904],[4.5488,2.66953]],[[219.28161,186.51327],[0.37752,-4.66767],[-0.06757,0.83547]],[[218.90493,190.78465],[0.77148,-0.46281],[-0.55725,0.3343]],[[217.06933,190.12802],[0.62462,0.17926],[-2.6459,-0.75937]],[[209.35226,188.52183],[2.81767,0.05008],[-2.39097,-0.65223]],[[202.12391,187.33919],[2.39666,0.53922],[-6.22045,-1.39953]],[[183.78493,192.00602],[2.9224,-7.65598],[-5.20423,6.56212]],[[184.47482,216.02813],[-6.32156,-6.39759],[0.81362,1.60294]],[[188.15739,221.44209],[-1.82383,-0.77537],[6.598,2.80503]],[[210.38183,223.46416],[-7.00858,-1.18356],[3.67017,0.66828]],[[221.60946,223.63814],[-3.69311,0.53748],[0.63941,-0.09306]],[[224.50681,222.51299],[-0.2889,0.8607],[0.19645,-0.58527]],[[224.46264,220.66142],[-0.1088,0.6077],[0.6217,-3.47256]],[[225.78306,210.13333],[0,3.57979],[0,-4.26439]],[[225.81524,195.91599],[-1.07377,4.11921],[1.21583,-4.66415]],[[225.78855,181.22394],[1.07876,4.90694],[-0.25044,-9.44129]],[[212.58473,158.16177],[9.52447,3.78519],[-4.06206,-1.66709]],[[199.4007,153.53823],[4.28674,0.94624],[-2.13703,-0.47172]],[[193.10917,153.97288],[2.05226,-0.55788],[-0.22155,0.24379]],[192.53306,154.21666],[[192.31896,154.19748],[0,0],[-1.09803,0.32399]],[[189.07243,155.18781],[1.06554,-0.30444],[0,0]]],&quot;closed&quot;:true}]}" fill="#ffffff"/><path d="M255.48728,183.69568c0,0.05743 -0.00877,0.10608 -0.02364,0.1473c1.9004,0.09631 3.72667,0.45959 5.38785,1.72456c0.83701,0.63737 1.41725,2.03231 2.05796,2.89237c0.64997,1.7184 0.0232,4.00979 -1.59761,4.92005c-0.80599,0.45265 -2.00887,0.49424 -2.84935,0.70551c-1.10871,0.2787 -2.54751,1.34967 -3.80981,0.82592c-0.62931,-0.26111 -1.36686,-1.01908 -1.86172,-1.48331c-2.13383,-1.51239 -2.73261,-4.61859 -2.73417,-7.14248c-0.00036,-0.57867 -0.21068,-1.86017 0.02862,-2.39961c0.47154,-1.06297 2.11217,-0.73336 3.0208,-0.73336c0.58216,0.003 1.09186,0.17067 1.67091,0.16709h0.33418c0,0 0.37596,0 0.37596,0.37596zM251.9908,183.83904c-0.5594,-0.01206 -1.12202,0.04133 -1.2107,0.33469c-0.15883,0.52543 0.02897,1.56737 0.02862,2.11186c-0.00148,2.30687 0.51,5.18323 2.45779,6.56004c0.44016,0.41286 1.08182,1.10342 1.63508,1.35623c1.02796,0.46972 2.48323,-0.61456 3.37513,-0.84499c0.7711,-0.19923 1.93283,-0.20364 2.66467,-0.63123c1.20092,-0.70166 1.84047,-2.53644 1.30979,-3.90238c-0.57182,-0.75612 -1.1075,-2.11061 -1.85198,-2.65507c-2.53744,-1.85569 -5.33603,-1.59529 -8.29551,-1.59529c0,0 -0.37596,0 -0.37596,-0.37596c0,-0.23932 0.15235,-0.3263 0.26308,-0.35791z" fill="#000000"/><path d="M306.76509,186.08316c0.03176,0.09526 0.02959,0.17356 0.00934,0.23716c2.61517,-0.04645 5.30677,-1.01897 8.0345,-0.32432c0.5865,0.04858 0.44609,-0.19822 0.57005,-0.78024c0.25375,-1.19135 0.51072,-2.21658 0.51188,-3.44164c0.00276,-2.9094 -1.92866,-5.31978 -4.80245,-5.79919c-1.09471,-0.18604 -2.32139,-0.668 -3.43281,-0.58592c-0.75831,0.056 -1.39201,0.4665 -2.13346,0.59427c-3.22202,0.55522 -5.49694,1.82298 -7.3226,4.57642c-1.09786,1.65146 -0.8345,3.11001 -0.93985,4.99271c-0.10743,1.91982 -0.5418,4.02411 -0.33519,5.941c0.13358,1.23931 0.74572,2.35035 1.0504,3.54392c0.1579,0.74151 0.92053,1.29677 1.47786,1.72772c3.39895,2.62819 6.81296,2.45341 10.86073,1.4408c0.66469,-0.22031 2.43398,-0.70158 2.7989,-1.34982c1.09763,-1.94985 1.0077,-4.71764 0.4995,-6.8545c-0.30239,0.82041 -1.17872,1.63391 -1.83041,2.03703c-2.68693,1.66207 -6.9855,0.77588 -9.16601,-1.4129c-0.56447,-0.75276 -2.17245,-3.33847 -1.53961,-4.28709c0.2302,-0.34506 0.70659,-0.50099 1.28155,-0.55454c-0.01901,-0.07636 -0.01177,-0.16938 0.05261,-0.27669c0.19343,-0.32238 0.51581,-0.12895 0.51581,-0.12895c0.27543,0.16566 0.55201,0.305 0.82968,0.42137c0.82146,0.0658 1.6228,0.19312 2.09141,0.19827l0.44261,-0.15265c0,0 0.35666,-0.11889 0.47555,0.23777zM303.84974,186.63486c-0.42884,-0.03028 -0.85596,-0.05558 -1.28442,-0.05686c-0.20354,-0.00061 -0.69672,-0.07418 -0.84984,0.15588c-0.07564,0.11365 0.16149,0.75276 0.19462,0.82812c0.39889,0.9072 0.67547,1.77392 1.27341,2.57101c1.61005,1.60324 3.54777,1.87547 5.73128,1.87547c0.5995,0 1.34573,0.15336 1.89026,-0.17041c0.99341,-0.59067 1.63071,-1.41176 2.30217,-2.28662l-0.01722,-0.00861l0.33054,-0.66108c0.06028,-0.12716 0.18982,-0.21511 0.33991,-0.21511c0.17892,0 0.32865,0.12498 0.36664,0.2924l0.16519,0.66074c0.57125,2.32281 0.75964,5.52073 -0.55214,7.65017c-0.52365,0.85006 -2.32082,1.35781 -3.2164,1.65783c-3.77938,0.94422 -7.0879,1.1737 -10.28502,-0.71696c-0.02036,0.04856 -0.05062,0.09193 -0.08825,0.12761l-0.29674,0.28242l-0.00155,-0.00163l-0.00305,0.00594c-0.70016,0.62048 -1.40723,1.08895 -2.07672,1.75048c-1.85183,0.92516 -3.76052,0.40913 -5.73483,0.40515c-0.99234,-0.002 -2.33544,0.00043 -3.10542,-0.77848c-0.80105,-0.81035 -0.66298,-2.5356 -0.77665,-3.57062c-0.03127,-0.28472 -0.09419,-0.67625 -0.04856,-1.00464c-0.49798,0.41858 -0.82742,0.90876 -1.31657,1.40053c-0.28955,0.28657 -0.99161,1.0669 -1.26735,1.24006c-2.20451,1.38442 -7.05826,1.08722 -8.97382,-0.9254c-0.34352,-0.36092 -0.70227,-1.6863 -0.94513,-2.15526c-0.37861,-1.84749 -1.24745,-3.71613 -1.48327,-5.56425c-0.18733,-1.46806 0.04523,-3.31733 0.76067,-4.6355c0.29755,-0.54822 1.01244,-0.9019 1.2769,-1.41765c0.29364,-0.57266 0.47366,-1.14582 0.91407,-1.73534c0.77771,-1.03914 1.30675,-1.98124 2.42667,-2.70728c2.16539,-1.40382 7.14258,-1.7258 8.32706,1.15683c0.45166,0.03278 0.90506,0.0612 1.37182,0.0612c0.63423,0.15992 0.62729,-2.10385 0.62659,-2.63169c-0.00436,-3.29525 -0.00324,-6.59061 0.001,-9.88586c0.25922,-1.78235 0.20323,-3.63484 0.50795,-5.39506c0.15762,-0.91047 0.93987,-1.65856 1.17517,-2.52956c0.17889,-0.66222 0.26671,-1.39834 0.73234,-1.96743c0.92289,-1.12796 2.68769,-1.50827 4.01499,-1.81616c0.84886,-0.00268 2.32305,-0.26769 3.11132,0.02611c0.65114,0.24269 0.76883,1.32993 1.01123,1.87781c0.71774,1.62231 1.05771,3.3636 1.3271,5.11351c0.02574,0.1672 0.25328,1.57392 0.21438,1.66047c-0.13254,0.29493 -0.45234,0.55795 -0.77465,0.58385c-0.19696,0.01583 -0.17178,-0.37121 -0.32542,-0.49545c-0.43847,-0.35458 -1.36345,-0.1649 -1.87047,-0.16845c-1.71906,0.58998 -4.22196,1.93007 -4.75467,3.83518c-0.63657,2.27651 0.06239,4.99266 -0.27747,7.34969c0.00707,4.79815 -0.50033,9.53595 -0.50033,14.34322c0,2.36239 0.09592,4.46105 1.44068,6.47512c0.33864,0.50718 0.77249,1.38721 1.33488,1.69921c0.5313,0.29475 1.87039,-0.00286 2.92435,-0.19434l-0.03616,-0.18078l0.44837,-0.08967c-0.17857,-0.12416 -0.35688,-0.25532 -0.53498,-0.39374c-0.72969,-0.56709 -1.48528,-1.20258 -1.74802,-2.13835c-0.31186,-1.23205 -0.93189,-2.36741 -1.06928,-3.64883c-0.20988,-1.95766 0.22147,-4.0992 0.33181,-6.05881c0.11405,-2.02544 -0.11778,-3.58388 1.06415,-5.37078c1.93424,-2.9172 4.40011,-4.33089 7.82346,-4.90222c0.76976,-0.12847 1.40948,-0.54529 2.20449,-0.60287c1.18371,-0.08573 2.44967,0.39692 3.61353,0.59455c3.70749,0.64001 5.48489,3.73529 5.42838,7.29855c-0.02237,1.41062 -0.24661,4.14741 -1.92567,4.21009c-3.75998,-0.9247 -7.32983,1.10867 -10.86732,-0.10741zM284.35,178.77645c-2.0114,-0.147 -3.90689,-0.00978 -5.41687,1.51293c-0.50852,0.51281 -0.82775,1.21759 -1.25832,1.79487c-0.4279,0.57277 -0.5378,1.05461 -0.8351,1.60334c-0.30857,0.56952 -0.98217,0.86824 -1.29632,1.45632c-0.63815,1.19463 -0.83791,2.86143 -0.67632,4.18694c0.21853,1.7926 1.09646,3.60738 1.44586,5.40538c0.19405,0.36552 0.54371,1.67114 0.8043,1.91335c2.46669,2.29274 7.02588,1.78846 9.14145,-0.3537c0.6006,-0.59703 0.9773,-1.21243 1.6906,-1.6906l0.3145,-0.3145c0.06803,-0.06803 0.16202,-0.11011 0.26584,-0.11011c0.20763,0 0.37596,0.16832 0.37596,0.37596v0.50127h-0.04796c0.15593,0.92522 0.19773,1.92082 0.21119,2.82044c0.0071,0.47467 0.02181,1.22554 0.39502,1.59228c0.62467,0.61384 1.79011,0.55581 2.5757,0.55825c1.74644,0.00542 3.65387,0.55739 5.29321,-0.26322c0.37814,-0.38349 0.77659,-0.69605 1.17838,-1.01208c-0.25123,0.05207 -0.51441,0.08237 -0.77838,0.1202c-4.37361,0.62668 -5.0676,-5.71002 -5.0676,-8.82862c0,-4.82622 0.49567,-9.57904 0.50222,-14.39652c0.34127,-2.40978 -0.3604,-5.17265 0.30395,-7.50099c0.62686,-2.19696 3.34823,-3.71708 5.35777,-4.37277c0.16183,-0.00097 1.63147,-0.05702 2.27331,0.1833c-0.00917,-0.06311 -0.01748,-0.1205 -0.02553,-0.16401c-0.04563,-0.24645 -0.07625,-0.49544 -0.11434,-0.74317c-0.11061,-0.71942 -0.2617,-1.42496 -0.41163,-2.13713c-0.26683,-1.26747 -0.76843,-2.28872 -1.19132,-3.49555c-0.09118,-0.26019 -0.00891,-0.72781 -0.27995,-0.77829c-0.82293,-0.1533 -1.89033,0.0291 -2.73688,0.02611c-1.09089,0.26076 -2.76364,0.56928 -3.50413,1.52567c-0.39764,0.51358 -0.44067,1.1209 -0.60439,1.70858c-0.23583,0.84653 -1.02457,1.60422 -1.16411,2.48318c-0.27641,1.74102 -0.23202,3.54038 -0.4946,5.2988c0.00454,3.27694 0.00512,6.55399 0.001,9.83094c-0.00153,1.2228 0.07955,3.24011 -1.37851,3.3836c-1.10198,0 -2.12786,-0.14822 -3.23403,-0.17661l-0.60126,0.30063c-0.05224,0.0275 -0.11175,0.04307 -0.1749,0.04307c-0.20763,0 -0.37596,-0.16832 -0.37596,-0.37596c0,-0.04465 0.00778,-0.08748 0.02207,-0.12721l0.16432,-0.49295l0.13478,0.04492c0.10397,-0.29961 0.20233,-0.54002 0.18011,-1.01213v-0.1661c-0.31988,-0.08544 -0.64929,-0.13517 -0.96311,-0.1581zM286.03581,179.8945c-0.00611,0.03163 -0.01349,0.06234 -0.0224,0.09196c0.0409,0.00019 0.0817,0.00058 0.1224,0.00118c-0.02816,-0.02027 -0.04421,-0.03632 -0.04421,-0.03632zM286.56622,180.00058c0.13398,0.00591 0.26718,0.01335 0.39991,0.02172c-0.06639,-0.1071 -0.14227,-0.20588 -0.22615,-0.2969c-0.00689,0.07092 -0.0392,0.14842 -0.1167,0.22592c-0.01905,0.01905 -0.03811,0.03537 -0.05707,0.04926z" fill="#000000"/><path d="M285.33768,178.92956l-0.00034,0.16465c0.02222,0.47211 -0.07894,0.70596 -0.18291,1.00557l-0.13438,-0.04424l-0.16554,0.491c-0.01429,0.03973 -0.02241,0.08208 -0.02241,0.12673c0,0.20763 0.16612,0.37333 0.37375,0.37333c0.06315,0 0.12222,-0.01601 0.17447,-0.04351l0.59997,-0.30183c1.10618,0.0284 2.10459,0.17318 3.20657,0.17318c1.45805,-0.14349 1.36436,-2.13034 1.36589,-3.35314c0.00412,-3.27694 0.02134,-6.53766 0.0168,-9.81461c0.26258,-1.75842 0.22892,-3.60673 0.50533,-5.34775c0.13954,-0.87896 0.92914,-1.63647 1.16497,-2.483c0.16372,-0.58768 0.207,-1.19495 0.60463,-1.70852c0.74048,-0.95639 2.41637,-1.26393 3.50727,-1.52469c0.84655,0.00299 1.91634,-0.17834 2.73927,-0.02504c0.27104,0.05049 0.18934,0.5184 0.28051,0.77859c0.42289,1.20682 0.92717,2.22976 1.19401,3.49723c0.14993,0.71217 0.30257,1.41893 0.41318,2.13835c0.03809,0.24772 0.06925,0.49719 0.11488,0.74365c0.00806,0.04352 -0.01726,0.13809 -0.00809,0.20119c-0.64183,-0.24031 -2.10956,-0.18268 -2.27139,-0.18172c-2.00954,0.65569 -4.70408,2.13362 -5.33094,4.33059c-0.66435,2.32835 0.04762,5.10159 -0.29365,7.51137c-0.00656,4.81748 -0.515,9.60523 -0.515,14.43145c0,3.11859 0.6738,9.40944 5.04741,8.78276c0.26397,-0.03783 0.54948,-0.02325 0.80072,-0.07533c-0.40179,0.31603 -0.80171,0.6293 -1.17985,1.01278c-1.63934,0.82061 -3.5522,0.27032 -5.29863,0.2649c-0.78559,-0.00244 -1.95389,0.05596 -2.57856,-0.55788c-0.37321,-0.36674 -0.38828,-1.11758 -0.39538,-1.59225c-0.01346,-0.89963 -0.05534,-1.89521 -0.21127,-2.82044l0.04519,-0.05005l0.00289,-0.45123c0,-0.20763 -0.16888,-0.37593 -0.37652,-0.37593c-0.10382,0 -0.19823,0.04209 -0.26627,0.11013l-0.315,0.3145c-0.7133,0.47817 -1.09236,1.09345 -1.69295,1.69049c-2.11556,2.14216 -6.68518,2.64304 -9.15188,0.3503c-0.26058,-0.24221 -0.612,-1.54897 -0.80604,-1.91449c-0.3494,-1.798 -1.23202,-3.61713 -1.45055,-5.40973c-0.16159,-1.32551 0.03538,-2.9964 0.67353,-4.19104c0.31414,-0.58808 0.98713,-0.888 1.2957,-1.45752c0.2973,-0.54873 0.40624,-1.03288 0.83414,-1.60565c0.43056,-0.57729 0.74885,-1.28538 1.25738,-1.79819c1.50998,-1.52272 3.45493,-1.6677 5.46633,-1.5207c0.31382,0.02293 0.64287,0.07029 0.96275,0.15574z" data-paper-data="{&quot;noHover&quot;:false,&quot;origItem&quot;:[&quot;Path&quot;,{&quot;applyMatrix&quot;:true,&quot;segments&quot;:[[[257.52839,183.98656],[0.62604,0.04575],[-4.01257,-0.29326]],[[246.7222,187.00474],[3.01228,-3.0377],[-1.01446,1.02302]],[[244.21196,190.58536],[0.85893,-1.15165],[-0.85363,1.14262]],[[242.546,193.78388],[0.59309,-1.09466],[-0.61557,1.13614]],[[239.95997,196.68911],[0.62668,-1.17316],[-1.27306,2.38319]],[[238.61077,205.04169],[-0.32235,-2.64428],[0.43595,3.57608]],[[241.49514,215.82497],[-0.69702,-3.58686],[0.38711,0.72918]],[[243.09965,219.64193],[-0.51984,-0.48319],[4.92084,4.57383]],[[261.33606,218.93633],[-4.22037,4.27342],[1.19814,-1.19103]],[[264.70866,215.56373],[-1.42297,0.95391],[0,0]],[[265.33606,214.93633],[0,0],[0.13572,-0.13572]],[[265.86639,214.71666],[-0.20711,0],[0.41421,0]],[[266.61639,215.46666],[0,-0.41421],[0,0]],[266.61639,216.46666],[[266.52071,216.46666],[0,0],[0.31106,1.84574]],[[266.94202,222.09321],[-0.02686,-1.79468],[0.01417,0.94693]],[[267.73005,225.26967],[-0.74452,-0.73162],[1.24616,1.22456]],[[272.86835,226.38333],[-1.56718,-0.00486],[3.48399,0.01081]],[[283.42786,225.85823],[-3.27035,1.63704],[0.75435,-0.76502]],[[285.77863,223.83922],[-0.80153,0.63045],[-0.50119,0.10388]],[[284.22582,224.079],[0.5266,-0.07546],[-8.72497,1.25017]],[[274.11639,206.46666],[0,6.22133],[0,-9.6279]],[[275.11828,177.74683],[-0.01308,9.61047],[0.6808,-4.80731]],[[275.72462,162.78299],[-1.32532,4.64485],[1.25054,-4.38275]],[[286.41292,154.05968],[-4.00887,1.30805],[0.32284,-0.00193]],[[290.94797,154.42534],[-1.2804,-0.4794],[-0.0183,-0.12589]],[[290.89702,154.09815],[0.01607,0.08681],[-0.09103,-0.49164]],[[290.66894,152.61559],[0.07598,0.49419],[-0.22065,-1.43518]],[[289.84778,148.35219],[0.2991,1.42072],[-0.53231,-2.52849]],[[287.47119,141.37887],[0.84363,2.40751],[-0.18189,-0.51906]],[[286.91271,139.82624],[0.5407,0.10073],[-1.64167,-0.30582]],[[281.45286,139.87833],[1.6888,0.00597],[-2.17624,0.52019]],[[274.46242,142.92191],[1.4772,-1.90792],[-0.79325,1.02454]],[[273.25671,146.33039],[0.32661,-1.17238],[-0.47047,1.68876]],[[270.93441,151.28413],[0.27838,-1.75345],[-0.55141,3.47319]],[[269.94772,161.85479],[0.52382,-3.50789],[0.00906,6.53722]],[[269.94972,181.46666],[0.00821,-6.53722],[-0.00306,2.43938]],[[267.19972,188.21666],[2.90869,-0.28625],[-2.19836,0]],[[260.7481,187.86433],[2.20673,0.05665],[0,0]],[[259.54863,188.46407],[0,0],[-0.10422,0.05487]],[[259.19972,188.55],[0.12597,0],[-0.41421,0]],[[258.44972,187.8],[0,0.41421],[0,-0.08907]],[[258.49375,187.54622],[-0.0285,0.07926],[0,0]],[258.82154,186.56283],[[259.09041,186.65245],[0,0],[0.20742,-0.5977]],[[259.44972,184.63333],[0.04433,0.94182],[0,0]],[[259.44972,184.30197],[0,0],[-0.63813,-0.17044]]],&quot;closed&quot;:true}]}" fill="#ffffff"/><path d="M306.29129,185.87038l-0.43373,0.15035c-0.46862,-0.00516 -1.25824,-0.14379 -2.07971,-0.20959c-0.27767,-0.11638 -0.55424,-0.25572 -0.82967,-0.42138c0,0 -0.32153,-0.19528 -0.51496,0.1271c-0.06439,0.10731 -0.07105,0.19881 -0.05204,0.27517c-0.57495,0.05355 -1.05032,0.20522 -1.28052,0.55028c-0.63283,0.94861 0.96874,3.51355 1.53321,4.26632c2.1805,2.18878 6.44214,3.07517 9.12906,1.4131c0.65169,-0.40312 1.56988,-1.19055 1.87227,-2.01095c0.50821,2.13686 0.5891,4.91602 -0.50852,6.86587c-0.36491,0.64824 -2.14009,1.13252 -2.80478,1.35283c-4.04777,1.0126 -7.48481,1.18412 -10.88376,-1.44408c-0.55733,-0.43095 -1.32359,-0.9894 -1.48149,-1.73091c-0.30468,-1.19357 -0.92132,-2.31129 -1.0549,-3.5506c-0.20661,-1.91688 0.22583,-4.03596 0.33326,-5.95577c0.10535,-1.8827 -0.15285,-3.35266 0.94501,-5.00413c1.82566,-2.75345 4.1182,-4.03049 7.34021,-4.58571c0.74145,-0.12777 1.37978,-0.53819 2.13809,-0.59419c1.11142,-0.08207 2.34514,0.40171 3.43985,0.58775c2.87379,0.47941 4.81729,2.90057 4.81454,5.80998c-0.00116,1.22505 -0.25545,2.25736 -0.5092,3.44871c-0.12397,0.58202 -0.0329,0.83742 -0.6194,0.78884c-2.72774,-0.69465 -5.4054,0.29709 -8.02057,0.34353c0.02024,-0.0636 0.02471,-0.14093 -0.00704,-0.23619c-0.11889,-0.35666 -0.46519,-0.23632 -0.46519,-0.23632z" data-paper-data="{&quot;noHover&quot;:false,&quot;origItem&quot;:[&quot;Path&quot;,{&quot;applyMatrix&quot;:true,&quot;segments&quot;:[[[302.24457,198.56283],[-0.23717,-0.71151],[0.06335,0.19004]],[[302.26321,199.03595],[0.04038,-0.12688],[5.21704,-0.09266]],[[318.29136,198.38895],[-5.4416,-1.38576],[1.17002,0.09692]],[[319.42857,196.83243],[-0.2473,1.16108],[0.50621,-2.37664]],[[320.44972,189.96666],[-0.00231,2.44388],[0.0055,-5.80401]],[[310.86925,178.39777],[5.73296,0.95638],[-2.18386,-0.37114]],[[304.02108,177.2289],[2.21719,-0.16373],[-1.51277,0.11171]],[[299.765,178.41441],[1.47913,-0.25489],[-6.42765,1.10762]],[[285.15704,187.54398],[3.64204,-5.49289],[-2.19013,3.29453]],[[283.28212,197.50402],[0.21016,-3.75583],[-0.21431,3.82988]],[[282.61346,209.35581],[-0.41217,-3.82402],[0.26648,2.47232]],[[284.70892,216.42563],[-0.60781,-2.38107],[0.315,1.47925]],[[287.65713,219.87229],[-1.11183,-0.85971],[6.78062,5.24302]],[[309.32336,222.74657],[-8.07496,2.02006],[1.32599,-0.4395]],[[314.90692,220.0538],[-0.72797,1.29318],[2.18968,-3.88978]],[[315.90337,206.37965],[1.01383,4.26286],[-0.60324,1.63664]],[[312.25186,210.44336],[1.30007,-0.80419],[-5.36019,3.31569]],[[293.96646,207.62473],[4.34992,4.36643],[-1.12607,-1.5017]],[[290.89507,199.07237],[-1.26245,1.8924],[0.45922,-0.68836]],[[293.45164,197.96611],[-1.14698,0.10682],[-0.03792,-0.15233]],[[293.5566,197.41413],[-0.12845,0.21408],[0.38587,-0.64312]],[[294.58559,197.15688],[0,0],[0.54946,0.33047]],[[296.24073,197.99748],[-0.55393,-0.23216],[1.63875,0.13127]],[[300.41292,198.39302],[-0.93485,-0.01029],[0,0]],[301.29588,198.08849]],&quot;closed&quot;:true}]}" fill="#ffffff"/><path d="M282.83642,183.53733c-0.62261,0.56017 -1.15866,1.18165 -1.47891,1.78052c0.3965,-0.38766 0.83231,-0.80698 1.17819,-1.32945c0.10024,-0.15036 0.20048,-0.30071 0.30071,-0.45108zM280.80156,185.91069c-0.03057,-0.00505 -0.06314,-0.01409 -0.09777,-0.02795c-0.34907,-0.13963 -0.20944,-0.48869 -0.20944,-0.48869c0.63892,-1.56514 2.35898,-2.95452 3.85695,-3.70556c0.43746,-0.21933 0.8009,-0.65646 1.28787,-0.70473c0.8002,-0.07932 0.78956,0.34588 1.1761,0.80265c1.01879,1.20387 1.86236,3.13225 1.91748,4.73322c0.15636,1.04555 0.4531,2.57564 0.16278,3.61191c-0.31546,1.12601 -1.17068,2.24809 -1.74926,3.25936c-0.51155,0.89412 -1.25971,2.24663 -2.3508,2.5281c-1.06837,0.27561 -2.31641,0.20329 -3.42588,0.34949c-1.6089,-0.07053 -1.82731,-1.38991 -2.22366,-2.7757c-0.64606,-2.25883 -0.03791,-3.63423 0.86153,-5.69532c0.20476,-0.4692 0.46695,-1.4043 0.79411,-1.88678zM283.47573,183.00636c0.01376,0.00541 0.02783,0.01167 0.0422,0.01886c0.33627,0.16813 0.16813,0.5044 0.16813,0.5044l-0.19054,0.37459c-0.11139,0.16709 -0.22279,0.33418 -0.33418,0.50127c-0.51543,0.76837 -1.1579,1.34911 -1.7196,1.897c-0.29005,0.28293 -0.57087,1.39629 -0.74511,1.79568c-0.69884,1.60183 -1.38971,2.76137 -0.99023,4.53796c0.21606,0.96087 0.48174,2.96729 1.6134,2.88209c1.06847,-0.1443 2.22316,-0.09505 3.25778,-0.31888c0.8601,-0.18607 1.5263,-1.49894 1.91585,-2.18151c0.54276,-0.95104 1.36,-2.00684 1.67031,-3.05907c0.27598,-0.93583 -0.03956,-2.42253 -0.17998,-3.37307c-0.02452,-1.12259 -0.59374,-2.86053 -1.24021,-3.82051c-0.03343,-0.04964 -0.85138,-1.08678 -1.00456,-1.03617c-0.68303,0.22566 -1.5019,0.6933 -2.26325,1.27734z" fill="#000000"/><path d="M303.49486,178.6489c-0.04692,-0.03902 -0.08841,-0.09681 -0.11656,-0.18127c-0.11889,-0.35666 0.23777,-0.47555 0.23777,-0.47555c1.26023,-0.41744 2.91905,-1.14916 4.28118,-1.18863c0.77575,-0.02248 1.4814,0.40564 2.23337,0.50382c0.79298,0.10354 1.52055,0.1844 1.95902,1.03654c0.43215,0.83986 0.53965,2.66432 0.54294,3.59741c0,1.08995 -0.0762,2.0619 -0.94446,2.85464c-1.67835,1.53237 -4.51464,1.22903 -6.3912,0.59638c-0.18272,-0.0616 -0.42329,0.08302 -0.57756,-0.03267c-0.72555,-0.54411 -1.57916,-2.42374 -1.85678,-3.27458c0.00583,-0.72029 -0.53427,-1.29904 -0.32291,-2.00717c0.15503,-0.51942 0.50767,-1.01342 0.95518,-1.42891zM306.61708,177.86275c-0.01005,0.36068 -0.37575,0.36068 -0.37575,0.36068h-0.16709c-1.03101,0 -2.37506,0.965 -2.81491,2.07227c-0.14713,0.37038 0.34191,1.19546 0.34546,1.66884c0.23125,0.6738 0.57339,0.95539 0.9447,1.52326c0.24298,0.3716 0.17414,0.96641 0.54034,1.21746c1.29048,0.88467 4.89451,0.6601 6.06438,-0.43884c0.71696,-0.67349 0.72646,-1.41752 0.72646,-2.3252c0.00336,-0.84338 -0.08951,-2.49119 -0.45961,-3.25335c-0.387,-0.79697 -1.44673,-0.64033 -2.13827,-0.82139c-0.90251,-0.23629 -1.79001,-0.18581 -2.66571,-0.00373z" fill="#000000"/><path d="M348.61424,168.3916c0.26584,0.26584 0,0.53168 0,0.53168l-0.33418,0.33418c-0.47898,0.47033 -0.97928,0.73702 -1.49942,0.91657c-0.19204,0.50144 -0.38291,0.99931 -0.59506,1.47665c0,0 -0.15269,0.34355 -0.49624,0.19086c-0.34355,-0.15269 -0.19086,-0.49624 -0.19086,-0.49624c0.13525,-0.30432 0.26254,-0.61574 0.38711,-0.93053c-0.55288,0.12081 -1.12553,0.21904 -1.71639,0.41839c-0.50736,0.34197 -1.54194,0.65951 -1.85047,1.19666c-1.12673,1.96167 0.49269,3.40642 1.64185,4.74383c1.12058,1.30417 2.16721,2.68764 3.32017,3.98375c1.89692,1.86842 4.87594,3.77886 5.93341,6.3214c0.63761,1.53304 0.29193,4.26868 0.15519,5.88034c-0.47132,5.29369 -5.25682,9.15851 -10.32707,9.15831c-3.01332,-0.00122 -6.92253,0.24787 -9.6049,-1.39877c-0.89297,-0.54817 -1.0373,-1.86218 -1.26675,-2.84754c-0.96822,3.32425 -1.03594,6.91479 -0.53411,10.32008c0.18992,1.30105 0.58692,2.54855 1.5104,3.53267c0.56817,0.60548 1.63657,0.74204 2.39162,0.97081c2.34695,0.7111 5.4036,0.16783 7.8171,-0.09245c4.87611,-0.52565 9.82457,-1.44612 13.7538,-4.44677c3.07749,-3.79737 6.27901,-8.26927 8.00044,-12.85975c0.49598,-1.31839 1.47053,-3.95364 0.88318,-5.35006c-0.44992,-1.06969 -2.24465,-1.69172 -3.03936,-2.47525c-1.15437,-1.13812 -2.02975,-2.4946 -3.4612,-3.38501c-1.60144,-1.0041 -3.32796,-1.87271 -4.96944,-2.82174c-0.92319,-0.53374 -1.98181,-0.94191 -2.392,-2.03894c-0.7381,-1.97405 0.79158,-4.95219 1.73252,-6.61507c1.71093,-2.99042 5.71295,-2.681 8.68025,-2.25622c0.96414,0.13802 2.11416,0.17877 3.03692,0.49062c0.71646,0.24213 1.46858,0.77547 2.1295,1.13948c1.22235,1.92164 1.50918,4.03696 1.64074,6.29279c0.0428,0.73393 0.03521,1.49688 0.12891,2.22587c0.03084,0.23995 0.09843,0.47376 0.14323,0.7115c0.02523,0.13389 0.05645,0.40838 0.06728,0.60426c0.10297,-0.12048 0.33218,-0.21786 0.41675,-0.35747c0.10985,-0.18136 -0.07719,-0.43674 -0.00495,-0.63608c0.26129,-0.72104 0.52974,-0.89542 0.74428,-1.68208c0.5637,-2.06688 1.18683,-4.07169 1.18714,-6.22406c0.00001,-0.02768 0.01114,-1.2595 -0.02658,-1.35616c-0.79403,-2.03472 -2.58067,-3.60991 -4.18501,-5.02917c-3.21316,-2.84766 -8.96881,-5.25967 -13.16377,-3.43754c-2.19638,0.9476 -4.40719,1.53732 -6.01909,3.46107c-0.65155,0.7776 -1.09318,1.69773 -1.47828,2.6445c0.20302,-0.12725 0.39931,-0.28253 0.58748,-0.47519l0.33418,-0.33418c0,0 0.26584,-0.26584 0.53168,0zM346.19591,169.61905c0.48744,-1.25229 1.00095,-2.50823 1.86171,-3.53921c1.69216,-2.02678 3.99225,-2.6759 6.30252,-3.67473c4.48026,-1.92477 10.51175,0.50856 13.9606,3.5651c1.67109,1.48355 3.60882,3.17518 4.39112,5.32998c0.85929,2.36688 -0.51846,5.7611 -1.13996,8.03997c-0.20308,0.74463 -0.50772,1.08073 -0.76488,1.74615c-0.10104,0.26146 0.04166,0.59556 -0.1052,0.83432c-0.09956,0.16186 -0.39254,0.07461 -0.53277,0.20286c-0.17072,0.15613 -0.1158,0.58481 -0.34656,0.60133c-0.3045,0.0218 -0.57919,-0.27105 -0.75203,-0.52268c-0.49339,-0.7183 -0.37758,-2.29553 -0.42633,-3.1314c-0.13353,-2.2896 -0.27546,-4.54044 -1.44852,-6.53901c-0.59513,-0.30055 -1.22755,-0.76309 -1.85559,-0.97533c-0.87812,-0.29676 -1.98471,-0.32722 -2.90274,-0.45863c-2.59739,-0.3718 -6.42288,-0.79481 -7.91934,1.88227c-0.81666,1.44244 -2.33379,4.25196 -1.68459,5.97607c0.33836,0.8986 1.315,1.2224 2.06606,1.65663c1.64949,0.95366 3.38156,1.82815 4.99215,2.83541c1.47895,0.93162 2.39414,2.311 3.59383,3.49061c0.92432,0.90884 2.66631,1.48463 3.20986,2.73801c0.68336,1.57578 -0.32131,4.38514 -0.88132,5.883c-1.75469,4.67917 -5.01321,9.28756 -8.18069,13.13519c-4.05117,3.13646 -9.14947,4.11032 -14.19697,4.65489c-2.5286,0.2727 -5.65028,0.79733 -8.11378,0.06508c-0.92049,-0.27361 -2.01917,-0.45528 -2.71797,-1.17028c-1.04262,-1.06679 -1.49914,-2.51289 -1.71187,-3.94379c-0.55759,-3.78361 -0.41224,-7.75239 0.7948,-11.40171l0.23503,-0.7051c0.04725,-0.15363 0.19028,-0.26529 0.3594,-0.26529c0.2009,0 0.36499,0.15757 0.37543,0.35587l0.02556,0.42143l-0.08052,0.00488c0.28638,1.07304 0.38801,2.35357 0.99854,3.12136c0.59381,0.74675 1.91356,0.87277 2.78646,1.03853c2.25097,0.42744 4.36757,0.49381 6.65509,0.49473c1.06373,0.00004 2.2686,-0.07416 3.2879,-0.32154c3.16188,-0.76738 6.03705,-5.06595 6.28984,-8.14908c0.12944,-1.49337 0.48332,-4.14628 -0.11461,-5.56455c-1.01653,-2.4112 -3.96834,-4.27863 -5.76985,-6.05497c-1.16503,-1.30827 -2.22132,-2.71185 -3.35664,-4.02505c-0.81297,-0.94035 -1.76704,-1.98235 -2.09004,-3.15224c-0.14593,1.76724 -0.52153,3.38969 -0.94985,5.10719c-0.11917,0.47785 -0.1226,1.35066 -0.80961,1.52266c-0.42147,0.10552 -1.3022,-1.10585 -1.5637,-1.2936c-0.70547,-0.50653 -1.73777,-0.81954 -2.50515,-1.26173c-0.98209,-0.5659 -1.34511,-1.23115 -2.56529,-0.96186c-5.22747,1.4332 -4.72335,6.61208 -4.72335,10.99637c0,1.73255 0.14529,3.54144 -0.17431,5.25317c-0.30847,1.6521 -1.02942,3.24205 -1.35795,4.8887c-0.36754,1.84212 -0.35575,3.66153 -2.41697,4.37052c-0.76168,0.46349 -1.45942,1.47698 -2.33309,1.72114c-1.55531,0.43466 -3.61067,-0.15522 -5.11728,-0.51619c-1.26205,-0.30238 -5.11539,-1.39979 -3.99612,-3.3896c0.32059,-0.56994 1.28141,-0.52163 1.79792,-0.7894c0.83797,-0.55365 2.02989,-0.62294 2.819,-1.15614c0.64762,-0.43759 1.90127,-1.52304 2.29789,-2.25927c0.33578,-0.6233 0.22031,-1.38696 0.29623,-2.0702c0.21158,-1.9041 -0.08635,-3.80914 -0.08635,-5.71854c0,-2.78318 0.07732,-5.46219 0.33568,-8.22105c0.02284,-0.24388 0.03836,-0.50388 0.05319,-0.77328c-1.16574,-1.77545 -1.55481,-4.26743 -1.88909,-6.3372c-0.08449,-0.52316 -0.3205,-1.35994 0.12934,-1.83157c0.38751,-0.40627 1.4058,0.11155 1.80705,0.24995c0.8223,-0.00656 1.7326,-0.04947 2.47671,0.38548c0.61779,0.36111 0.94995,0.71527 1.76151,0.61503c2.8529,-0.35235 4.73075,-3.39006 7.0485,-4.75142c1.54012,-1.0571 4.21187,-1.64994 6.00735,-0.9039c1.40206,0.58257 2.36532,2.2711 3.25687,3.37324c0.17738,0.21928 0.50494,0.31976 0.61763,0.57831c0.09826,0.22545 0.13077,0.49707 0.12511,0.78978c0.01561,-0.02667 0.03167,-0.05339 0.04818,-0.08017c0.4327,-0.70206 1.49224,-1.0362 2.15973,-1.47681c0.80222,-0.26527 1.60638,-0.3214 2.35706,-0.53866zM321.15393,180.16538c-0.05535,0.0369 -0.10743,0.05748 -0.15568,0.06635c-0.00375,0.05347 -0.00792,0.10541 -0.01259,0.15568c-0.25454,2.73648 -0.33268,5.39275 -0.33268,8.15391c0,2.40077 0.85331,5.9391 -0.29947,8.14469c-0.42987,0.82247 -1.78878,2.02434 -2.5397,2.52665c-0.82425,0.55136 -2.00917,0.60894 -2.86211,1.18314c-0.14483,0.07046 -1.42806,0.36295 -1.54391,0.54733c-0.30536,0.48601 0.51634,1.04975 0.84931,1.27859c1.26736,0.871 3.17751,1.09921 4.62947,1.43764c0.67717,0.15784 2.1155,0.23782 2.78534,0.06164c0.7663,-0.20155 1.55292,-1.26869 2.23252,-1.68264c1.78963,-0.60079 1.67389,-2.23169 1.9982,-3.83737c0.33238,-1.64562 1.0514,-3.23586 1.35769,-4.88735c0.30819,-1.66175 0.15987,-3.42481 0.15987,-5.1065c0,-4.04294 -0.54518,-9.16638 3.81979,-11.31556c0.04215,-0.02075 1.3799,-0.3845 1.48235,-0.41252c1.48918,-0.2751 1.91773,0.36499 3.11582,1.04324c0.79156,0.44811 1.83688,0.78261 2.56712,1.30188c0.36462,0.25927 0.68268,0.58097 0.99145,0.90474c0.05926,0.06214 -0.02462,0.2712 0.05878,0.2508c0.56081,-0.13716 0.2073,-1.13813 0.37043,-1.69195c0.42019,-1.42654 0.60917,-2.88292 0.72252,-4.36153c0.04833,-0.62218 0.55645,-2.10004 0.27265,-2.69063c-0.09512,-0.19793 -0.37347,-0.2433 -0.51411,-0.41196c-0.80616,-0.9668 -1.69711,-2.68052 -2.96342,-3.15561c-1.60642,-0.6027 -3.93722,-0.11409 -5.31524,0.84314c-2.42811,1.42834 -4.33815,4.52145 -7.361,4.86377c-0.98538,0.11159 -1.49194,-0.25302 -2.24869,-0.7217c-0.61388,-0.3802 -1.52363,-0.27837 -2.20185,-0.28289c-0.40315,-0.1307 -1.00842,-0.79615 -1.20059,-0.41842c-0.19389,0.38112 0.17548,1.48887 0.24724,1.86888c0.25984,1.37589 0.52579,2.99274 1.12453,4.34047c0.10608,-0.97504 0.3349,-1.92924 0.95994,-2.58477c0,0 0.26584,-0.26584 0.53168,0c0.26584,0.26584 0,0.53168 0,0.53168c-0.71913,0.66828 -0.80055,2.04669 -0.84181,3.20518l0.22042,0.33063c0,0 0.20855,0.31282 -0.10427,0.52136z" fill="#000000"/><path d="M321.24063,179.62615l-0.22027,-0.33078c0.04126,-1.1585 0.12799,-2.54082 0.84712,-3.2091c0,0 0.28956,-0.22168 0.02372,-0.48752c-0.26584,-0.26584 -0.53079,-0.00049 -0.53079,-0.00049c-0.62503,0.65553 -0.84955,1.60659 -0.95563,2.58163c-0.59874,-1.34773 -0.89541,-3.00403 -1.15524,-4.37992c-0.07176,-0.38001 -0.44002,-1.48846 -0.24613,-1.86958c0.19217,-0.37773 0.79865,0.28705 1.2018,0.41775c0.67821,0.00452 1.59102,-0.09865 2.20489,0.28155c0.75674,0.46868 1.26693,0.83227 2.25231,0.72068c3.02285,-0.34232 4.94473,-3.43495 7.37284,-4.86329c1.37802,-0.95723 3.71431,-1.44353 5.32073,-0.84083c1.2663,0.47509 2.16153,2.19188 2.96769,3.15868c0.14064,0.16866 0.41961,0.21459 0.51472,0.41252c0.2838,0.59058 -0.22271,2.07014 -0.27104,2.69232c-0.11334,1.47861 -0.29952,2.93893 -0.71971,4.36547c-0.16312,0.55381 0.19147,1.55689 -0.36934,1.69405c-0.08341,0.0204 -0.04492,-0.16742 -0.10418,-0.22955c-0.30878,-0.32377 -0.62571,-0.64338 -0.99032,-0.90265c-0.73025,-0.51927 -1.77245,-0.84964 -2.56401,-1.29775c-1.19809,-0.67825 -1.62137,-1.31402 -3.11055,-1.03892c-0.10246,0.02802 -1.43781,0.39307 -1.47995,0.41382c-4.36496,2.14918 -3.80624,7.27485 -3.80624,11.31779c0,1.68169 0.14592,3.44491 -0.16227,5.10666c-0.30629,1.65148 -1.02817,3.24161 -1.36055,4.88724c-0.3243,1.60568 -0.21097,3.23623 -2.00059,3.83702c-0.6796,0.41395 -1.46862,1.48049 -2.23492,1.68204c-0.66983,0.17618 -2.11135,0.095 -2.78852,-0.06284c-1.45196,-0.33843 -3.36705,-0.56962 -4.63441,-1.44062c-0.33298,-0.22884 -1.15604,-0.79371 -0.85068,-1.27973c0.11584,-0.18438 1.43172,-0.5149 1.57655,-0.58536c0.85294,-0.57421 2.03609,-0.63312 2.86034,-1.18448c0.75092,-0.50231 2.0826,-1.66212 2.51247,-2.48459c1.15278,-2.20558 0.28971,-5.75496 0.28971,-8.15574c0,-2.76117 0.08189,-5.44402 0.33643,-8.1805c0.00468,-0.05027 0.00909,-0.10251 0.01285,-0.15597c0.04824,-0.00888 0.10065,-0.02981 0.156,-0.0667c0.31282,-0.20855 0.10522,-0.52234 0.10522,-0.52234z" data-paper-data="{&quot;noHover&quot;:false,&quot;origItem&quot;:[&quot;Path&quot;,{&quot;applyMatrix&quot;:true,&quot;segments&quot;:[[[330.94908,186.75737],[0.62404,-0.41603],[-0.11042,0.07361]],[[330.63851,186.88974],[0.09624,-0.01771],[-0.00749,0.10666]],[[330.61339,187.2003],[0.00933,-0.10028],[-0.50779,5.45904]],[[329.94972,203.46666],[0,-5.50829],[0,4.78934]],[[329.35231,219.71462],[2.29969,-4.39995],[-0.85756,1.64075]],[[324.28583,224.75508],[1.49802,-1.00207],[-1.6443,1.09991]],[[318.57617,227.11535],[1.70154,-1.14549],[-0.28893,0.14056]],[[315.4962,228.20723],[0.2311,-0.36782],[-0.60917,0.96955]],[[317.19052,230.75791],[-0.66426,-0.45652],[2.52827,1.73758]],[[326.42591,233.62587],[-2.89653,-0.67513],[1.35089,0.31487]],[[331.98242,233.74883],[-1.33626,0.35146],[1.5287,-0.40208]],[[336.4361,230.39212],[-1.35574,0.82579],[3.57015,-1.19853]],[[340.42233,222.73688],[-0.64696,3.20319],[0.66306,-3.28288]],[[343.1308,212.98704],[-0.61102,3.29457],[0.61482,-3.31505]],[[343.44972,202.8],[0,3.35483],[0,-8.06533]],[[351.06987,180.22643],[-8.70773,4.28743],[0.08408,-0.0414]],[[354.02704,179.40348],[-0.20439,0.05589],[2.97079,-0.5488]],[[360.24283,181.48465],[-2.39009,-1.35305],[1.5791,0.89394]],[[365.36402,184.08179],[-1.45678,-1.03589],[0.72738,0.51723]],[[367.34188,185.88666],[-0.61598,-0.64589],[0.11822,0.12396]],[[367.45915,186.38698],[-0.16639,0.0407],[1.11877,-0.27363]],[[368.19813,183.0117],[-0.32542,1.10481],[0.83824,-2.84582]],[[369.63949,174.31081],[-0.22611,2.94971],[0.09642,-1.24119]],[[370.18341,168.94324],[0.56616,1.17816],[-0.18975,-0.39486]],[[369.1578,168.12141],[0.28056,0.33646],[-1.60822,-1.92868]],[[363.24604,161.82624],[2.52617,0.94777],[-3.20468,-1.20234]],[[352.64259,163.50824],[2.74903,-1.90959],[-4.84387,2.84941]],[[337.95803,173.21105],[6.03033,-0.6829],[-1.96574,0.22261]],[[333.47209,171.77132],[1.50963,0.93498],[-1.22463,-0.75846]],[[329.07959,171.20698],[1.35298,0.00901],[-0.80425,-0.26073]],[[326.6845,170.37226],[0.38336,-0.75354],[-0.3868,0.7603]],[[327.17773,174.10052],[-0.14316,-0.75809],[0.51835,2.74478]],[[329.42107,182.75939],[-1.19444,-2.6886],[0.21162,-1.94513]],[[331.33606,177.603],[-1.24689,1.30772],[0,0]],[[332.39672,177.603],[-0.53033,-0.53033],[0.53033,0.53033]],[[332.39672,178.66366],[0,0],[-1.4346,1.33317]],[[330.71738,185.05774],[0.08231,-2.3111],[0,0]],[331.15709,185.71731]],&quot;closed&quot;:true}]}" fill="#ffffff"/><path d="M348.08714,168.41624l-0.33369,0.33408c-0.18817,0.19266 -0.39548,0.29905 -0.59849,0.42629c0.3851,-0.94678 0.8291,-1.86736 1.48065,-2.64496c1.6119,-1.92374 3.82928,-2.51354 6.02566,-3.46114c4.19495,-1.82213 9.96278,0.59481 13.17594,3.44248c1.60434,1.41925 3.3954,2.99878 4.18944,5.0335c0.03772,0.09666 0.02723,1.32933 0.02723,1.35701c-0.00032,2.15238 -0.62084,4.16167 -1.18454,6.22855c-0.21455,0.78666 -0.4824,0.96249 -0.74369,1.68353c-0.07224,0.19935 0.11506,0.45545 0.00521,0.6368c-0.08457,0.13961 -0.3613,0.25294 -0.46427,0.37342c-0.01083,-0.19588 -0.04179,-0.46963 -0.06702,-0.60352c-0.0448,-0.23774 -0.11205,-0.47068 -0.14289,-0.71063c-0.09369,-0.729 -0.08498,-1.48956 -0.12778,-2.22348c-0.13156,-2.25582 -0.41417,-4.36542 -1.63652,-6.28706c-0.66092,-0.36401 -1.41109,-0.89557 -2.12755,-1.13769c-0.92277,-0.31185 -2.07013,-0.3507 -3.03428,-0.48872c-2.9673,-0.42479 -6.95962,-0.73066 -8.67055,2.25977c-0.94094,1.66288 -2.46573,4.59118 -1.72763,6.56523c0.41018,1.09703 1.47754,1.50727 2.40073,2.04101c1.64149,0.94903 3.38064,1.82995 4.98208,2.83405c1.43145,0.8904 2.3092,2.25691 3.46357,3.39503c0.79471,0.78353 2.58916,1.40998 3.03908,2.47968c0.58735,1.39642 -0.39012,4.04014 -0.8861,5.35854c-1.72143,4.59048 -4.93836,9.07433 -8.01585,12.87169c-3.92924,3.00065 -8.8921,3.92066 -13.76821,4.44632c-2.4135,0.26029 -5.4758,0.80083 -7.82275,0.08973c-0.75505,-0.22877 -1.82517,-0.36654 -2.39333,-0.97203c-0.92348,-0.98413 -1.32269,-2.23356 -1.51262,-3.53461c-0.50184,-3.40529 -0.43881,-7.00218 0.52941,-10.32643c0.22945,0.98536 0.41646,2.27332 1.30943,2.82148c2.68237,1.64664 6.58406,1.39059 9.59739,1.39181c5.07025,0.0002 9.8351,-3.86699 10.30642,-9.16068c0.13673,-1.61166 0.46721,-4.31334 -0.1704,-5.84639c-1.05746,-2.54253 -4.00021,-4.44188 -5.89713,-6.3103c-1.15297,-1.29612 -2.19852,-2.6803 -3.3191,-3.98447c-1.14916,-1.33742 -2.79582,-2.8242 -1.66909,-4.78587c0.30852,-0.53715 1.34577,-0.85606 1.85312,-1.19803c0.59086,-0.19935 1.16573,-0.29845 1.71861,-0.41926c-0.12457,0.31479 -0.23507,0.67343 -0.37033,0.97775c0,0 -0.17036,0.29664 0.17319,0.44933c0.34355,0.15269 0.49698,-0.19113 0.49698,-0.19113c0.21215,-0.47734 0.40438,-0.97564 0.59643,-1.47708c0.52014,-0.17955 1.02264,-0.44675 1.50161,-0.91708l0.33469,-0.33427c0,0 0.27379,-0.21635 0.00795,-0.48219c-0.26584,-0.26584 -0.53103,-0.00012 -0.53103,-0.00012z" data-paper-data="{&quot;noHover&quot;:false,&quot;origItem&quot;:[&quot;Path&quot;,{&quot;applyMatrix&quot;:true,&quot;segments&quot;:[[[385.73005,163.26967],[-0.53033,-0.53033],[0.53033,0.53033]],[385.73005,164.33033],[[385.06339,164.99699],[0,0],[-0.95552,0.93827]],[[382.07218,166.82547],[1.03763,-0.35819],[-0.3831,1.00033]],[[380.88508,169.77127],[0.42322,-0.95225],[0,0]],[[379.89512,170.15202],[0.68536,0.3046],[-0.68536,-0.3046]],[[379.51436,169.16206],[0,0],[0.26982,-0.60709]],[[380.28661,167.30574],[-0.24851,0.62797],[-1.10294,0.241]],[[376.86257,168.1404],[1.17871,-0.39769],[-1.01213,0.6822]],[[373.17104,170.52763],[0.61548,-1.07157],[-2.24774,3.91336]],[[376.4464,179.99117],[-2.29247,-2.66804],[2.23547,2.6017]],[[383.06986,187.93842],[-2.30007,-2.58564],[3.7842,3.72733]],[[394.9065,200.54906],[-2.10955,-5.07213],[1.27197,3.05829]],[[395.2161,212.27984],[0.27277,-3.21512],[-0.94025,10.56045]],[[374.61447,230.5499],[10.11472,0.0004],[-6.01132,-0.00244]],[[355.45352,227.75946],[5.3511,3.28491],[-1.78139,-1.09355]],[[352.92647,222.07886],[0.45774,1.9657],[-1.93151,6.6316]],[[351.86097,242.66653],[-1.00113,-6.79326],[0.37888,2.59548]],[[354.87408,249.71392],[-1.84226,-1.96325],[1.13345,1.20788]],[[359.64516,251.65061],[-1.50627,-0.45638],[4.68196,1.41858]],[[375.2396,251.46617],[-4.81472,0.51925],[9.72742,-1.04863]],[[402.67726,242.59525],[-7.83849,5.98604],[6.13933,-7.57542]],[[418.63746,216.94115],[-3.43411,9.15762],[0.98944,-2.63008]],[[420.39933,206.26824],[1.17172,2.78574],[-0.89756,-2.13394]],[[414.33606,201.33033],[1.58538,1.56307],[-2.30287,-2.27046]],[[407.43126,194.57753],[2.85562,1.77628],[-3.19474,-2.00309]],[[397.51765,188.94839],[3.27463,1.89324],[-1.84168,-1.06477]],[[392.74582,184.88087],[0.81828,2.18849],[-1.47245,-3.93807]],[[396.20204,171.68437],[-1.87709,3.31731],[3.41316,-5.96564]],[[413.5184,167.1834],[-5.91952,-0.84741],[1.92338,0.27534]],[[419.57679,168.16215],[-1.84084,-0.62211],[1.42928,0.48302]],[[423.82496,170.43531],[-1.31847,-0.72616],[2.43849,3.8335]],[[427.0981,182.98889],[-0.26246,-4.50017],[0.08539,1.46412]],[[427.35525,187.42931],[-0.18691,-1.45429],[0.06152,0.47868]],[[427.64098,188.84871],[-0.08938,-0.47427],[0.05034,0.26709]],[[427.77519,190.05415],[-0.0216,-0.39076],[0.20542,-0.24035]],[[428.60657,189.34101],[-0.16871,0.27852],[0.21914,-0.36179]],[[428.59669,188.07208],[-0.14411,0.39768],[0.52125,-1.43842]],[[430.08147,184.71647],[-0.428,1.56932],[1.12453,-4.12325]],[[432.44972,172.3],[-0.00063,4.29381],[0.00001,-0.05522]],[[432.39669,169.59458],[0.07525,0.19282],[-1.58403,-4.05909]],[[424.04796,159.56182],[3.20052,2.83129],[-6.40997,-5.68084]],[[397.78737,152.70421],[8.36857,-3.63499],[-4.38159,1.89038]],[[385.77979,159.60874],[3.21561,-3.8377],[-1.29979,1.55125]],[[382.83075,164.8843],[0.76825,-1.88874],[0.405,-0.25386]],[[384.00273,163.93633],[-0.37539,0.38434],[0,0]],[384.66939,163.26967]],&quot;closed&quot;:true}]}" fill="#00b7ff"/><path d="M376.25268,171.28913c0.01511,0 0.02962,0.00061 0.04354,0.00177c0.03615,-0.56022 0.0584,-1.12225 0.06171,-1.68673c0.03553,-5.22625 0.85553,-10.41552 0.85553,-15.65078c0,-2.40936 -0.25064,-4.6498 -2.50602,-6.03664c-0.77318,-0.47543 -1.61414,-0.62383 -2.48286,-0.77276c-0.27027,-0.04634 -0.71384,0.08138 -0.80318,-0.17788c-0.41328,-1.19934 1.91623,-2.28294 2.64878,-2.70131c0.47001,-0.23441 1.29035,-0.71285 1.84831,-0.71285c0.59447,0 1.36618,0.49082 1.84074,0.77461c1.16278,0.69537 2.817,1.48238 3.49182,2.74552c0.25538,0.47802 0.25585,1.05361 0.36189,1.58511c0.28066,1.4067 0.88989,2.71429 1.17385,4.13684c0.58806,5.02747 -0.14507,9.91618 -0.14285,14.94442c-0.00117,2.15524 -0.52219,4.19933 -0.65416,6.33007c-0.06308,1.01828 0.10069,2.14482 0.09238,3.21359c0.45453,-0.8903 1.02352,-1.78553 2.07416,-1.94371c0.85902,-0.12933 1.51573,0.72366 2.00057,1.26619c1.30431,1.45952 3.04871,2.4482 4.13503,4.08537c0.62692,1.85507 1.18079,4.0768 0.87087,6.05932c-0.44642,2.85568 -2.11958,5.32754 -2.16433,8.29473c0.16013,1.30613 0.48973,3.07663 1.44793,4.0756c0.36037,0.37571 1.23428,1.038 1.68896,1.28724c0.33484,0.18354 1.34472,0.10111 1.50223,0.50927c0.21259,0.55088 -0.42051,1.09946 -0.74409,1.42548c-1.34991,1.36015 -2.33464,2.44072 -4.35959,2.4494c-0.70314,0 -1.53412,0.10017 -2.2281,-0.00418c-2.09073,-0.31438 -3.85262,-2.043 -3.5757,-4.25934c0.07651,-0.61237 0.45232,-1.20711 0.50112,-1.83672c0.11883,-1.53295 0.31076,-2.9876 0.50138,-4.51238c0.24147,-2.17345 0.53186,-4.32839 0.66635,-6.49329c0.00914,-0.14721 0.31112,-1.68998 0.23726,-1.76479c-0.10147,-0.10277 -0.31156,0.00247 -0.42426,-0.08784c-0.34928,-0.27985 -0.41208,-0.83513 -0.77588,-1.09582c-0.97807,-0.70085 -2.11032,-0.09223 -3.1113,-0.00177c-1.64319,0.3721 -1.9052,2.39391 -2.34008,3.74462c-0.58012,1.80183 -1.05666,3.66953 -1.15856,5.58962c-0.07365,1.38783 0.19711,2.75954 -0.41966,4.02596c-1.89996,2.71987 -2.96067,6.11452 -5.21834,8.57326c-1.27168,1.38495 -3.55777,1.32839 -4.89261,0.01765c-0.68115,-0.74747 -0.68593,-2.31813 -1.08588,-3.30122c-0.11913,-0.29282 -0.52873,-0.51424 -0.4685,-0.82457c0.22152,-1.14129 1.93332,-0.18716 2.48755,-0.48651c0.41404,-0.22363 0.8026,-1.35153 0.98532,-1.74712c0.4054,-0.87771 1.19497,-1.68379 1.54067,-2.55159c0.23974,-0.60182 0.28648,-1.49389 0.45244,-2.14097c0.81529,-3.20144 1.6932,-6.46588 2.86433,-9.63696c0.39484,-1.06911 0.31883,-1.94693 1.01265,-2.98169c0.82178,-1.92919 0.77232,-4.12246 1.28338,-6.16516c0.2133,-0.85255 0.52695,-1.83132 0.6588,-2.79829c0.00909,-0.07396 0.01809,-0.14793 0.02697,-0.22191c0.06905,-0.6506 0.04552,-1.29103 -0.15723,-1.87891l-0.01929,-0.28598c0,0 0,-0.37596 0.37596,-0.37596zM380.88959,179.67592c0.23552,-3.89102 1.00469,-7.97302 1.00243,-11.93749c0.00211,-4.98788 0.73112,-9.8408 0.15207,-14.82707c-0.2832,-1.41307 -0.8857,-2.70672 -1.16835,-4.10618c-0.1227,-0.60748 0.02458,-0.79259 -0.2643,-1.33781c-0.60967,-1.15066 -2.18577,-1.86189 -3.23906,-2.49607c-0.33347,-0.20078 -1.01637,-0.66746 -1.45388,-0.66746c-0.41696,0 -1.15582,0.45456 -1.49352,0.62388c-0.73742,0.42162 -1.36388,1.00644 -2.06385,1.46024c0.35516,0.00587 1.12512,0.19043 1.30012,0.24872c0.69088,0.23009 1.35537,0.54881 1.88345,1.04442c2.02106,1.89678 2.42067,3.52177 2.42067,6.27228c0,5.23705 -0.82002,10.42816 -0.85555,15.6559c-0.03299,4.29918 -1.14955,8.45787 -1.14955,12.74966c0,0 0,0.37596 -0.37596,0.37596c-0.37596,0 -0.37596,-0.37596 -0.37596,-0.37596c0,-0.12799 0.001,-0.25585 0.00294,-0.38361c-0.12021,0.47526 -0.26977,0.94266 -0.46605,1.39813c-0.68757,1.03655 -0.57416,1.78446 -0.96715,2.88051c-1.13215,3.15752 -2.05847,6.37843 -2.84207,9.56458c-0.555,2.16407 -1.4435,4.34356 -2.77691,6.20089c-0.31551,0.43948 -0.88991,0.74933 -1.43064,0.76644c-0.17218,0.00545 -1.01888,-0.0064 -1.08058,-0.0107c-0.05989,-0.00418 -0.21079,-0.09484 -0.17369,-0.04764c0.46875,0.59622 0.89783,1.47257 1.11889,2.26948c0.15861,0.57177 -0.22913,0.76821 0.23413,1.15727c1.20585,1.23457 3.07871,0.9489 4.05856,-0.32407c1.93692,-2.51636 3.05181,-5.52545 4.87476,-8.12003c0.55773,-1.07705 0.25109,-2.48144 0.31475,-3.68093c0.10523,-1.98278 0.59549,-3.91822 1.19361,-5.77999c0.5598,-1.74248 0.9117,-3.7182 2.93208,-4.25605c0.7634,-0.06206 1.32673,-0.42787 2.113,-0.33649c1.39054,0.16161 1.44405,0.85103 2.35439,1.57818c0.16371,0.13077 0.46422,0.07059 0.57829,0.24635c0.32868,0.50641 -0.06249,1.69494 -0.09692,2.24541c-0.13645,2.18119 -0.42715,4.35095 -0.67038,6.53985c-0.19065,1.52536 -0.37434,2.97915 -0.50117,4.51056c-0.05242,0.63297 -0.42118,1.22716 -0.50142,1.8393c-0.23762,1.81269 1.25253,3.173 2.94087,3.42687c0.65734,0.09884 1.45129,-0.00418 2.11629,-0.00418c1.53941,0.00755 2.24616,-0.64743 3.29622,-1.69749c0.27443,-0.27443 0.54925,-0.54849 0.82672,-0.81985c0.09927,-0.09708 0.35767,-0.16626 0.29761,-0.29145c-0.17043,-0.35523 -0.82424,0.02752 -1.17123,-0.1591c-0.4653,-0.25024 -1.51854,-1.04895 -1.8817,-1.43344c-1.0822,-1.14576 -1.47474,-3.06367 -1.65396,-4.55473c0.05583,-3.02861 1.69859,-5.52336 2.16894,-8.42563c0.29699,-1.83256 -0.23592,-3.91762 -0.80004,-5.63709c-1.04526,-1.55807 -2.77207,-2.51131 -4.02082,-3.91535c-0.25058,-0.28174 -0.83889,-1.13248 -1.34349,-1.0208c-1.21198,0.26827 -2.03742,2.20508 -2.61003,3.59207c-0.00028,0.00524 -0.00053,0.01048 -0.00075,0.01574v0.4948c0,0.20763 -0.16832,0.37596 -0.37596,0.37596c-0.20763,0 -0.37596,-0.16832 -0.37596,-0.37596v-0.50127h0.00417z" fill="#000000"/><path d="M380.90321,179.70864l-0.00419,0.00001l-0.00092,0.50163c0,0.20763 0.15008,0.32928 0.35771,0.32928c0.20763,0 0.3738,-0.1673 0.3738,-0.37494l-0.00107,-0.49419c0.00022,-0.00525 0.00042,-0.01047 0.00071,-0.01571c0.57261,-1.38698 1.38596,-3.30457 2.59795,-3.57284c0.50459,-0.11169 1.14228,0.747 1.39286,1.02874c1.24875,1.40404 2.97339,2.36315 4.01865,3.92123c0.56412,1.71947 1.09264,3.81057 0.79565,5.64314c-0.47035,2.90227 -2.12042,5.40217 -2.17625,8.43078c0.17922,1.49106 0.55102,3.36334 1.63321,4.5091c0.36316,0.38449 1.4155,1.18362 1.8808,1.43387c0.347,0.18662 1.00006,-0.19575 1.17048,0.15949c0.06006,0.12519 -0.17495,0.23869 -0.27422,0.33578c-0.27747,0.27136 -0.55313,0.54584 -0.82756,0.82027c-1.05006,1.05006 -1.75969,1.70618 -3.29911,1.69863c-0.665,0 -1.4606,0.1035 -2.11794,0.00466c-1.68834,-0.25387 -3.18043,-1.61377 -2.94281,-3.42646c0.08024,-0.61215 0.43974,-1.25558 0.49217,-1.88856c0.12683,-1.53141 0.30876,-2.98477 0.49941,-4.51013c0.24324,-2.1889 0.52971,-4.35705 0.66616,-6.53824c0.03443,-0.55046 0.42355,-1.73787 0.09488,-2.24428c-0.11407,-0.17575 -0.38912,-0.0724 -0.55283,-0.20317c-0.91033,-0.72715 -0.96719,-1.41499 -2.35773,-1.57659c-0.78627,-0.09138 -1.3557,0.27593 -2.11909,0.33799c-2.02039,0.53785 -2.37903,2.51345 -2.93883,4.25593c-0.59812,1.86176 -1.08035,3.74773 -1.18557,5.73051c-0.06366,1.19949 0.23489,2.65335 -0.32284,3.7304c-1.82296,2.59458 -2.94063,5.60308 -4.87756,8.11943c-0.97985,1.27297 -2.85547,1.55771 -4.06132,0.32313c-0.46326,-0.38906 -0.07599,-0.5857 -0.2346,-1.15746c-0.22106,-0.7969 -0.65158,-1.67393 -1.12033,-2.27015c-0.0371,-0.0472 0.13634,-0.00131 0.19623,0.00287c0.0617,0.0043 0.90766,0.0158 1.07984,0.01035c0.54073,-0.01711 1.11435,-0.32731 1.42986,-0.76678c1.33342,-1.85733 2.20273,-3.99051 2.75772,-6.15458c0.7836,-3.18615 1.70801,-6.40793 2.84017,-9.56546c0.39299,-1.09604 0.27847,-1.84457 0.96604,-2.88111c0.19628,-0.45547 0.345,-0.92338 0.46521,-1.39864c-0.00194,0.12775 0.02325,0.21288 0.02325,0.34087c0,0 -0.00142,0.37517 0.37454,0.37517c0.37596,0 0.35364,-0.33107 0.35364,-0.33107c0,-4.29179 1.11919,-8.49671 1.15217,-12.79589c0.03554,-5.22773 0.86239,-10.42021 0.86239,-15.65726c0,-2.75051 -0.39491,-4.32562 -2.41597,-6.22241c-0.52808,-0.49561 -1.19112,-0.81457 -1.882,-1.04465c-0.175,-0.05828 -0.9554,-0.29186 -1.31056,-0.29773c0.69997,-0.4538 1.3283,-1.03899 2.06571,-1.46061c0.33769,-0.16933 1.0778,-0.62404 1.49476,-0.62404c0.43751,0 1.12153,0.46659 1.455,0.66737c1.05329,0.63417 2.63214,1.34539 3.2418,2.49605c0.28888,0.54523 0.14192,0.73035 0.26461,1.33783c0.28265,1.39946 0.8867,2.69325 1.1699,4.10633c0.57905,4.98627 -0.145,9.84033 -0.14711,14.82821c0.00226,3.96447 -0.7654,8.09336 -1.00091,11.98439z" data-paper-data="{&quot;noHover&quot;:false,&quot;origItem&quot;:[&quot;Path&quot;,{&quot;applyMatrix&quot;:true,&quot;segments&quot;:[[[450.11663,185.78094],[0,0],[0.46984,-7.76226]],[[452.11639,161.96666],[0.00451,7.90877],[0.00421,-9.9504]],[[452.41975,132.38792],[1.15516,9.94718],[-0.56495,-2.81896]],[[450.08899,124.19644],[0.56387,2.7918],[-0.24477,-1.21187]],[[449.56173,121.52763],[0.5763,1.08768],[-1.21623,-2.29546]],[[443.10009,116.54819],[2.10122,1.26512],[-0.66525,-0.40054]],[[440.19972,115.21666],[0.87279,0],[-0.8318,0]],[[437.22028,116.46125],[0.67367,-0.33779],[-1.47108,0.8411]],[[433.10307,119.37432],[1.39639,-0.9053],[0.70851,0.01172]],[[435.69669,119.87048],[-0.34911,-0.11627],[1.37824,0.459]],[[439.45401,121.95401],[-1.05348,-0.9887],[4.03184,3.78391]],[[444.28306,134.46666],[0,-5.48703],[0,10.44747]],[[442.57631,165.69884],[0.07089,-10.42888],[-0.06581,8.57649]],[[440.28306,191.13333],[0,-8.56176],[0,0]],[[439.53306,191.88333],[0.75,0],[-0.75,0]],[[438.78306,191.13333],[0,0],[0,-0.25532]],[[438.78891,190.36807],[-0.00387,0.25486],[-0.2398,0.9481]],[[437.85918,193.15723],[0.39156,-0.90862],[-1.37165,2.06782]],[[435.9298,198.90359],[0.78399,-2.18651],[-2.25855,6.29899]],[[430.26011,217.98411],[1.56322,-6.3561],[-1.10717,4.31714]],[[424.7204,230.35435],[2.66006,-3.70521],[-0.62942,0.87672]],[[421.86639,231.88333],[1.07872,-0.03414],[-0.34348,0.01087]],[[419.71073,231.86198],[0.12308,0.00858],[-0.11947,-0.00833]],[[419.36424,231.76694],[-0.07402,-0.09415],[0.93511,1.18941]],[[421.59633,236.29435],[-0.44099,-1.58975],[0.31641,1.14063]],[[422.06339,238.603],[-0.92416,-0.77614],[2.40556,2.46287]],[[430.15986,237.95651],[-1.95472,2.53947],[3.864,-5.01992]],[[439.8846,221.75774],[-3.63665,5.17596],[1.11263,-2.14863]],[[440.5125,214.4146],[-0.12699,2.39288],[0.20992,-3.95548]],[[442.89366,202.88402],[-1.1932,3.71406],[1.11675,-3.4761]],[[448.74291,194.39357],[-4.0305,1.07296],[1.52291,-0.12381]],[[452.95816,193.7223],[-1.56854,-0.18229],[2.77401,0.32239]],[[457.65497,196.87063],[-1.81604,-1.45061],[0.32658,0.26087]],[[458.80859,197.36207],[-0.22755,-0.35061],[0.65568,1.01024]],[[458.61524,201.84147],[0.06869,-1.09813],[-0.2722,4.35128]],[[457.27788,214.88792],[0.48524,-4.36667],[-0.38033,3.04297]],[[456.2781,223.88611],[0.25302,-3.05503],[-0.10458,1.26273]],[[455.27779,227.55535],[0.16008,-1.22118],[-0.47403,3.61616]],[[461.14458,234.39167],[-3.36809,-0.50645],[1.31133,0.19718]],[[465.36639,234.38333],[-1.32662,0],[3.071,0.01506]],[[471.94207,230.99699],[-2.09478,2.09478],[0.54746,-0.54746]],[[473.59129,229.36147],[-0.55352,0.54134],[0.19803,-0.19367]],[[474.185,228.78006],[0.11982,0.24974],[-0.33999,-0.70865]],[[471.84849,228.46267],[0.69223,0.37229],[-0.92823,-0.49921]],[[468.09465,225.60308],[0.72448,0.76703],[-2.15889,-2.28569]],[[464.79515,216.51678],[0.35752,2.97453],[0.11137,-6.04181]],[[469.12201,199.70836],[-0.93831,5.78979],[0.59247,-3.65581]],[[467.52599,188.46284],[1.12537,3.4302],[-2.08521,-3.10822]],[[459.5048,180.65207],[2.49115,2.80093],[-0.49988,-0.56204]],[[456.82466,178.61567],[1.00662,-0.22281],[-2.4178,0.53517]],[[451.61788,185.78153],[1.14231,-2.76691],[-0.00056,0.01045]],[[451.61639,185.81292],[0.00043,-0.01047],[0,0]],[[451.61639,186.8],[0,0],[0,0.41421]],[[450.86639,187.55],[0.41421,0],[-0.41421,0]],[[450.11639,186.8],[0,0.41421],[0,0]],[450.11639,185.8],[450.12471,185.8]],&quot;closed&quot;:true}]}" fill="#ffffff"/><path d="M397.02323,178.46422c0.07074,4.04732 0.5221,8.17899 0.79112,12.2143c0.13731,2.05976 -0.13526,4.44866 0.34089,6.45142c0.67873,2.85484 1.19781,5.7246 1.19785,8.70536c-0.01224,2.74019 -1.9982,4.67715 -3.76067,6.41549c-0.26574,0.2621 -0.53971,0.58998 -0.90694,0.65671c-0.11143,0.02025 0.12765,0.1903 0.21311,0.26462c0.23269,0.20236 0.55656,0.27628 0.79782,0.46834c0.36666,0.29188 0.80698,0.59493 1.27562,0.59118c1.07859,0 2.54642,0.25972 3.58964,0.01006c3.73625,-0.89417 4.88167,-4.09884 4.89251,-7.52993c-1.06894,-4.75304 -2.67571,-9.21712 -2.67571,-14.16025c0,-1.41223 -0.38182,-2.66745 -0.61244,-4.05127c-0.18964,-1.13791 -0.06924,-2.28356 -0.21816,-3.40763c-0.08178,-0.61733 -0.47542,-1.13716 -0.33225,-1.80223c0.34393,-1.59772 1.08085,-3.07643 1.59355,-4.62231c0.41624,-0.98166 0.97918,-1.77442 1.58447,-2.5779c0.13678,-0.18157 -0.43272,-0.14418 -0.63642,-0.24509c-0.90056,-0.44615 -1.20476,-0.97073 -2.25597,-0.96349c-2.19012,0.01508 -3.6594,0.18074 -4.50701,2.46519c-0.14954,0.39763 -0.27216,0.76336 -0.37099,1.11744zM396.73062,176.97885c1.01451,-2.53644 3.3649,-3.31676 6.00767,-2.8394c0.74804,0.13512 2.93979,1.28828 2.78712,2.12348c-0.04924,0.26936 -0.39934,0.38218 -0.54737,0.61255c-0.39031,0.60742 -0.77848,1.37781 -1.06536,2.05793c-0.50588,1.51644 -1.16304,2.94719 -1.55874,4.49917c-0.13494,0.52927 0.26932,1.04139 0.33611,1.5396c0.15079,1.12484 0.02812,2.26725 0.21764,3.40447c0.23759,1.42562 0.62267,2.71806 0.62267,4.17487c0,4.91398 1.63056,9.34678 2.67122,14.07821c0.01072,3.7871 -1.3482,7.38226 -5.46717,8.34377c-1.11332,0.25989 -2.61578,0.01006 -3.76239,0.01006c-0.89727,-0.00598 -3.97032,-1.34384 -2.7262,-2.68604c0.121,-0.13054 0.38834,0.08203 0.53358,-0.02086c0.1685,-0.11937 0.13268,-0.40672 0.27761,-0.55381c1.59316,-1.61696 3.55749,-3.33482 3.54415,-5.88754c0.00004,-2.92245 -0.51229,-5.73362 -1.17746,-8.53145c-0.48678,-2.04746 -0.21929,-4.47058 -0.35961,-6.57532c-0.19838,-2.97576 -0.49056,-5.99997 -0.66213,-9.00593c-0.02952,0.00628 -0.06218,0.00975 -0.0983,0.00975c-0.37596,0 -0.37596,-0.37596 -0.37596,-0.37596v-0.16709c0,-1.05641 0.10346,-1.91336 0.3438,-2.81616c-0.00597,-0.34292 -0.00928,-0.68527 -0.00962,-1.02695c0,0 0,-0.37596 0.37596,-0.37596c0.03389,0 0.06472,0.00305 0.09278,0.00861z" fill="#000000"/><path d="M397.3904,177.32201c0.84761,-2.28444 2.32304,-2.45029 4.51317,-2.46537c1.05121,-0.00724 1.35842,0.51782 2.25898,0.96396c0.2037,0.10092 0.76164,0.11229 0.62485,0.29386c-0.60528,0.80348 -1.16688,1.59655 -1.58312,2.57821c-0.51269,1.54589 -1.24817,3.02483 -1.5921,4.62255c-0.14317,0.66508 0.25878,1.13549 0.34056,1.75282c0.14892,1.12407 0.03181,2.27061 0.22145,3.40852c0.23062,1.38382 0.62424,2.64759 0.62424,4.05982c0,4.94313 1.59701,9.44525 2.66595,14.19829c-0.01083,3.43108 -1.16582,6.63793 -4.90207,7.53209c-1.04322,0.24966 -2.51559,-0.01035 -3.59417,-0.01035c-0.46864,0.00374 -0.91067,-0.29963 -1.27733,-0.59151c-0.24126,-0.19206 -0.56624,-0.26626 -0.79893,-0.46862c-0.08546,-0.07432 -0.31077,-0.29257 -0.19934,-0.31282c0.36723,-0.06673 0.64029,-0.39486 0.90602,-0.65696c1.76247,-1.73834 3.74384,-3.67602 3.75609,-6.4162c-0.00004,-2.98076 -0.5358,-5.80551 -1.21453,-8.66036c-0.47615,-2.00276 -0.20086,-4.43343 -0.33817,-6.4932c-0.26902,-4.03531 -0.7126,-8.16983 -0.78335,-12.21715c0.09883,-0.35408 0.22227,-0.71994 0.3718,-1.11757z" data-paper-data="{&quot;noHover&quot;:false,&quot;origItem&quot;:[&quot;Path&quot;,{&quot;applyMatrix&quot;:true,&quot;segments&quot;:[[[482.30185,183.36369],[0.19716,-0.70636],[0.14113,8.07406]],[[483.88007,207.73018],[-0.53667,-8.0501],[0.27393,4.10905]],[[484.56011,220.6002],[-0.94988,-3.99534],[1.35401,5.69517]],[[486.94972,237.96666],[-0.00008,-5.94637],[-0.02441,5.46644]],[[479.44751,250.76501],[3.51598,-3.46784],[-0.53012,0.52286]],[[477.63825,252.0751],[0.73259,-0.13313],[-0.22229,0.0404]],[[478.06339,252.603],[-0.17048,-0.14826],[0.4642,0.4037]],[[479.65497,253.5373],[-0.4813,-0.38315],[0.73145,0.58228]],[[482.19972,254.71666],[-0.93489,0.00746],[2.1517,0]],[[489.36074,254.73673],[-2.08113,0.49806],[7.45349,-1.78379]],[[499.12087,239.71517],[-0.02161,6.84471],[-2.13245,-9.4819]],[[493.78306,211.46666],[0,9.86113],[0,-2.81728]],[[492.56129,203.38474],[0.46007,2.7606],[-0.37831,-2.27003]],[[492.12607,196.5868],[0.29708,2.24242],[-0.16315,-1.23152]],[[491.46325,192.9915],[-0.28561,1.32677],[0.68611,-3.18732]],[[494.64224,183.77038],[-1.02277,3.08392],[0.83037,-1.95832]],[[497.80312,178.62768],[-1.20749,1.60287],[0.27287,-0.36222]],[[496.53352,178.13875],[0.40636,0.20132],[-1.79655,-0.89003]],[[492.03306,176.21666],[2.09707,-0.01444],[-4.36911,0.03009]],[[483.04195,181.1345],[1.69091,-4.55727],[-0.29831,0.79324]]],&quot;closed&quot;:true}]}" fill="#ffffff"/><path d="M399.35309,162.58031c-1.04855,0.21677 -2.10608,0.67736 -2.00511,1.23148c0,0 0,0.37596 -0.37596,0.37596c-0.37596,0 -0.37596,-0.37596 -0.37596,-0.37596c0.02654,-0.29991 -0.10123,-0.65902 0.07963,-0.89973c0.16998,-0.22625 0.55177,-0.14518 0.80312,-0.27519c1.09602,-0.5669 2.44872,-1.23241 3.77922,-0.85588c2.75851,0.78064 3.78421,4.122 3.77432,6.57932c-0.18304,0.92634 -0.40922,2.51391 -1.11083,3.23644c-0.67357,0.69365 -1.46778,0.54762 -2.31688,0.44148c-0.86599,-0.10825 -1.81538,-0.12129 -2.62562,-0.53668c-1.74538,-0.89483 -2.04676,-3.46226 -2.04878,-5.1832c0,-1.8851 0.47222,-3.08285 2.35049,-3.66182zM400.14775,162.46339c0.14142,0.23385 -0.06932,0.44459 -0.06932,0.44459l-0.40237,0.38815c-1.63704,0.5756 -1.99388,1.26614 -1.99388,3.02184c0.00101,1.36897 0.17186,3.80594 1.62723,4.50811c0.7517,0.36267 1.5928,0.36657 2.38713,0.46586c0.68658,0.08582 1.14074,0.29983 1.69332,-0.22689c0.55908,-0.53291 0.74731,-2.05372 0.89426,-2.77885c-0.01002,-2.08481 -0.83756,-5.13389 -3.24352,-5.78545c-0.21257,-0.05757 -0.53073,-0.06738 -0.89285,-0.03737z" fill="#000000"/><path d="M401.04092,162.47569c2.40596,0.65156 3.25635,3.73524 3.26638,5.82005c-0.14696,0.72513 -0.34576,2.25807 -0.90484,2.79098c-0.55258,0.52671 -1.0153,0.31578 -1.70188,0.22995c-0.79432,-0.09929 -1.64937,-0.1049 -2.40106,-0.46757c-1.45537,-0.70217 -1.64097,-3.16672 -1.64199,-4.53569c0,-1.7557 0.373,-2.46527 2.01005,-3.04087l0.40536,-0.38902c0,0 0.21163,-0.21093 0.07021,-0.44478c0.36211,-0.03001 0.68522,-0.02063 0.89778,0.03694z" data-paper-data="{&quot;noHover&quot;:false,&quot;origItem&quot;:[&quot;Path&quot;,{&quot;applyMatrix&quot;:true,&quot;segments&quot;:[[[488.535,151.44341],[0.72238,-0.05987],[0.28213,0.46651]],[488.39672,152.33033],[[487.59402,153.10465],[0,0],[-3.26576,1.14828]],[[483.61639,159.13297],[0,-3.50247],[0.00202,2.73098]],[[486.86257,168.12626],[-2.90333,-1.40077],[1.49957,0.72349]],[[491.62469,169.05562],[-1.58461,-0.19808],[1.36967,0.17121]],[[495.00273,168.603],[-1.10235,1.05075],[1.11531,-1.0631]],[[496.78671,163.05943],[-0.29317,1.44657],[-0.01999,-4.15902]],[[490.31615,151.51795],[4.79968,1.29981],[-0.42405,-0.11484]]],&quot;closed&quot;:true}]}" fill="#ffffff"/><path d="M411.3778,206.37357c-0.55819,-2.84571 -0.55651,-6.01811 -0.82401,-8.51433c-0.55838,-5.21161 -0.70268,-10.48901 -1.34795,-15.68087c-0.58313,-4.77219 0.34883,-9.70099 -0.51124,-14.45362c-0.06533,-1.0198 -0.375,-2.08006 -0.09724,-3.08604c1.21842,-4.41285 4.81847,-5.90276 8.63602,-7.53139c2.36216,-0.64717 4.53554,-0.66159 6.94791,-0.85548c1.34324,-0.10796 2.94182,-0.35819 4.24731,0.14858c1.1578,0.44943 2.21725,1.5186 3.09386,2.3578c1.6993,1.62765 2.63368,3.48626 4.01612,5.33175c1.82265,2.43314 3.31101,4.83542 3.663,7.94674c0.43374,3.90585 1.08536,8.12917 -1.48994,11.5467c-0.60287,0.80003 -1.41465,1.29068 -2.20831,1.88399c-4.21334,2.20638 -10.00918,2.41667 -14.46823,0.9053c-0.93734,-0.62202 -2.15157,-0.87832 -3.05572,-1.53193c-0.38046,-0.27503 -0.76885,-0.53915 -1.1451,-0.81991c-0.09579,-0.07149 -0.08706,-0.36351 -0.19056,-0.30374c-0.28718,0.16584 0.31601,2.24221 0.37132,2.49921c0.44963,2.08918 0.76861,4.41201 0.84607,6.54799c0.15873,4.73078 1.77747,9.21733 2.54415,13.79132c-0.00116,1.5386 0.40635,4.04149 2.24069,4.51742c0.45009,0.11678 0.92989,-0.01613 1.39488,-0.01613h0.66836c0.20763,0 0.37596,0.16832 0.37596,0.37596c0,0.08993 -0.03158,0.17249 -0.08425,0.2372l-0.46784,0.58481l-0.02811,-0.02249c-0.72636,1.19956 -1.65293,2.39685 -2.75066,3.18149c-2.58571,1.84822 -6.58491,1.04654 -8.67315,-1.0417c-2.2689,-2.2689 -2.09247,-5.10026 -1.70336,-7.9986zM411.9068,208.40858c-0.12562,1.9752 0.13743,3.8633 1.70604,5.43191c1.83481,1.83481 5.41076,2.59852 7.70182,0.9634c1.07172,-0.76488 1.62226,-2.27807 2.66502,-2.99174l-0.00404,-0.00323c-0.31104,0.00055 -1.47781,0.00273 -1.54755,-0.01622c-2.1485,-0.584 -2.77066,-3.3025 -2.77205,-5.17389c-0.79019,-4.5835 -2.37408,-9.08701 -2.54634,-13.82821c-0.0794,-2.36075 -0.49264,-4.84232 -0.9879,-7.15116c-0.13874,-0.64678 -0.58878,-2.19653 0.27794,-2.63355c0.04222,-0.02129 1.43548,0.66483 1.51148,0.71898c1.08024,0.7698 2.34084,1.22652 3.45427,1.97237c4.23107,1.38248 9.74043,1.21885 13.73682,-0.86587c0.49128,-0.36976 1.13194,-0.73225 1.57671,-1.1548c3.05816,-2.90542 2.17971,-7.9189 1.77527,-11.55682c-0.32463,-2.98108 -1.78214,-5.2592 -3.52091,-7.58358c-1.35703,-1.81407 -2.26151,-3.63756 -3.93087,-5.2348c-0.80917,-0.77464 -1.78371,-1.77885 -2.8482,-2.20085c-1.18857,-0.47119 -2.69468,-0.19623 -3.91971,-0.09865c-2.34474,0.18678 -4.4571,0.19218 -6.7536,0.81543c-3.62272,1.56043 -6.94863,2.86049 -8.16009,7.02603c-0.25543,0.87829 0.06378,1.89502 0.12006,2.79021c0.86828,4.75194 -0.08282,9.68353 0.51114,14.4528c0.63631,5.19798 0.79042,10.47638 1.34932,15.6928c0.12402,1.15766 0.26824,2.31279 0.4092,3.4683c0.17432,0.1018 0.17432,0.32703 0.17432,0.32703v0.41773c0,1.28377 0.50801,2.51731 0.33314,3.79275c0.20854,1.69079 0.56581,3.38423 1.59677,4.75398c0,0 0.22557,0.30076 -0.07519,0.52634c-0.30076,0.22557 -0.52634,-0.07519 -0.52634,-0.07519c-0.56274,-0.75278 -0.98503,-1.62928 -1.30652,-2.58149z" fill="#000000"/><path d="M413.22339,210.96712c0,0 0.22513,0.30058 0.5259,0.07501c0.30076,-0.22557 0.05582,-0.48011 0.05582,-0.48011c-1.03096,-1.36975 -1.39149,-3.06484 -1.60002,-4.75564c0.17487,-1.27544 -0.33548,-2.51059 -0.33548,-3.79436l-0.00026,-0.41793c0,0 -0.00034,-0.2255 -0.17466,-0.3273c-0.14096,-1.15552 -0.28784,-2.31319 -0.41186,-3.47086c-0.5589,-5.21641 -0.71844,-10.51873 -1.35474,-15.71671c-0.59396,-4.76928 0.3657,-9.71346 -0.50258,-14.46541c-0.05628,-0.8952 -0.37423,-1.91286 -0.11879,-2.79114c1.21147,-4.16554 4.54593,-5.46937 8.16865,-7.0298c2.2965,-0.62325 4.41466,-0.6293 6.7594,-0.81608c1.22502,-0.09758 2.73447,-0.3723 3.92305,0.09889c1.0645,0.422 2.04179,1.42676 2.85096,2.2014c1.66936,1.59723 2.57881,3.42258 3.93584,5.23665c1.73877,2.32438 3.20293,4.60734 3.52756,7.58842c0.40443,3.63793 1.28955,8.66393 -1.7686,11.56935c-0.44477,0.42255 -1.08512,0.78686 -1.57641,1.15661c-3.9964,2.08473 -9.50609,2.25678 -13.73716,0.8743c-1.11344,-0.74585 -2.42171,-1.21735 -3.50195,-1.98714c-0.07599,-0.05415 -1.42303,-0.72087 -1.46526,-0.69957c-0.86672,0.43701 -0.41475,1.97892 -0.27601,2.6257c0.49526,2.30885 0.90178,4.77128 0.98118,7.13203c0.17227,4.74121 1.74318,9.23737 2.53337,13.82087c0.00139,1.87138 0.61985,4.58937 2.76835,5.17337c0.06974,0.01896 1.23499,0.01672 1.54603,0.01617l0.00388,0.05336c-1.04275,0.71367 -1.59562,2.22675 -2.66734,2.99163c-2.29106,1.63512 -5.87349,0.8699 -7.7083,-0.96491c-1.56861,-1.56861 -1.83485,-3.45817 -1.70922,-5.43338c0.3215,0.95222 0.7659,1.78378 1.32865,2.53657z" data-paper-data="{&quot;noHover&quot;:false,&quot;origItem&quot;:[&quot;Path&quot;,{&quot;applyMatrix&quot;:true,&quot;segments&quot;:[[[511.99332,243.10014],[0.64136,1.89959],[-0.25061,3.94036]],[[515.39672,253.93633],[-3.12924,-3.12924],[3.66029,3.66029]],[[530.76119,255.85823],[-4.57047,3.26192],[2.13799,-1.52587]],[[536.07767,249.88996],[-2.08019,1.42372],[0,0]],[[536.06961,249.88351],[0,0],[-0.6205,0.00109]],[[532.98238,249.85115],[0.13912,0.03782],[-4.28608,-1.16504]],[[527.45237,239.52969],[0.00277,3.73325],[-1.57637,-9.1437]],[[522.37263,211.94359],[0.34367,9.4583],[-0.1584,-4.7095]],[[520.40186,197.67763],[0.988,4.60595],[-0.27677,-1.29027]],[[520.95632,192.42393],[-1.72903,0.8718],[0.08423,-0.04247]],[[523.97159,193.85823],[-0.1516,-0.10803],[2.15498,1.53568]],[[530.86257,197.79293],[-2.22121,-1.4879],[8.44063,2.75793]],[[558.26636,196.06559],[-7.97247,4.15885],[0.98007,-0.73763]],[[561.41177,193.76185],[-0.88727,0.84296],[6.10076,-5.79606]],[[564.95329,170.70698],[0.80681,7.25736],[-0.64761,-5.947]],[[557.92938,155.57839],[3.46869,4.63693],[-2.70716,-3.61892]],[[550.08762,145.13542],[3.33024,3.18633],[-1.61423,-1.54534]],[[544.40571,140.74491],[2.12358,0.84186],[-2.3711,-0.93999]],[[536.58622,140.54811],[2.44382,-0.19467],[-4.67755,0.37261]],[[523.11337,142.17483],[4.58132,-1.24333],[-7.22702,3.11292]],[[506.83469,156.19116],[2.41677,-8.3099],[-0.50956,1.75211]],[[507.07419,161.7574],[-0.11227,-1.78584],[1.73214,9.47972]],[[508.09387,190.58951],[-1.18489,-9.51431],[1.26938,10.36953]],[[510.78565,221.8953],[-1.11496,-10.4063],[0.2474,2.30944]],[[511.60196,228.81427],[-0.2812,-2.30516],[0.34776,0.20309]],[511.94972,229.46666],[[511.94972,230.3],[0,0],[0,2.56102]],[[512.6143,237.86622],[0.34886,-2.5444],[0.41602,3.37299]],[[515.79972,247.35],[-2.05668,-2.73253],[0,0]],[[515.64972,248.4],[0.6,-0.45],[-0.6,0.45]],[[514.59972,248.25],[0,0],[-1.12262,-1.50174]]],&quot;closed&quot;:true}]}" fill="#ffffff"/><path d="M419.52939,163.43583c0.37596,0 0.37596,0.37596 0.37596,0.37596l-0.11011,0.60003c-1.23683,1.20805 -3.08442,3.08756 -3.58203,4.85585c-0.62154,2.20866 -0.22075,4.52281 0.22947,6.73511c0.67247,2.96775 2.61925,5.0655 4.70047,7.12969c0.47369,0.46981 0.85916,1.19908 1.41746,1.57592c0.79712,0.53804 2.16368,0.45468 3.06604,0.42106c0.59052,-0.14241 1.55003,-0.15409 2.07993,-0.4285c1.0877,-0.56327 1.71476,-2.14253 2.17162,-3.16017c1.11549,-2.48474 2.48773,-5.38694 2.4744,-8.17561c-0.00597,-3.53078 -1.0728,-6.13609 -3.10651,-9.00476c-0.83242,-1.17418 -1.32386,-2.44439 -2.48354,-3.36669c-3.05049,0.10806 -9.91305,0.60994 -9.86483,4.99026c0,0 0,0.37596 -0.37596,0.37596c-0.37596,0 -0.37596,-0.37596 -0.37596,-0.37596c0.04258,-4.9245 7.21562,-5.7918 10.85452,-5.70359c1.38487,0.99965 1.90834,2.30689 2.86339,3.65115c2.12297,2.98818 3.23457,5.74927 3.24081,9.43234c-0.00307,2.90536 -1.37686,5.89318 -2.54035,8.48483c-0.52654,1.17287 -1.26129,2.8596 -2.50278,3.51516c-0.59446,0.3139 -1.66964,0.35388 -2.33206,0.51043c-1.07836,0.04511 -2.59016,0.11123 -3.55002,-0.51788c-0.6293,-0.41245 -1.03909,-1.16787 -1.56564,-1.69011c-2.19173,-2.1738 -4.19007,-4.38869 -4.90596,-7.5049c-0.47427,-2.32965 -0.88697,-4.78465 -0.21413,-7.11165c0.55968,-1.9357 2.43576,-3.81087 3.77,-5.16964l-0.11011,-0.06834c0,0 0,-0.37596 0.37596,-0.37596z" fill="#000000"/></g></g></svg>